<svg width="350" height="56" viewBox="0 0 350 56" fill="none" xmlns="http://www.w3.org/2000/svg">
<g clip-path="url(#clip0_66_408)">
<path d="M54.1067 19.2418C35.4734 6.62102 18.6193 31.8627 0 19.2418V4.33057C18.6193 16.9514 35.4734 -8.29025 54.1067 4.33057V19.2418Z" fill="#C40201"/>
<path d="M54.1067 35.7424C35.4734 23.1216 18.6193 48.3632 0 35.7424V20.8405C18.6193 33.4613 35.4734 8.21964 54.1067 20.8405V35.7424Z" fill="#AB3331"/>
<path d="M54.1067 52.2617C35.4734 39.6408 18.6193 64.8825 0 52.2617V37.3457C18.6193 49.9665 35.4734 24.7249 54.1067 37.3457V52.2617Z" fill="#EE9695"/>
<path d="M77.5108 8.90214H72.6841V6.03674H85.831V8.90214H81.0042V21.2191H77.5108V8.90214Z" fill="white"/>
<path d="M99.3867 18.4005V21.2051H87.7031V6.03674H99.1033V8.84137H91.1733V12.1415H98.1788V14.8713H91.1733V18.4005H99.3867Z" fill="white"/>
<path d="M111.516 21.2191L107.874 15.9465L104.297 21.2191H100.293L105.867 13.4971L100.567 6.01807H104.525L108.004 10.9682L111.41 6.04611H115.182L109.923 13.3662L115.549 21.2191H111.516Z" fill="white"/>
<path d="M119.878 8.90214H115.052V6.03674H128.217V8.90214H123.372V21.2191H119.878V8.90214Z" fill="white"/>
<path d="M130.075 6.03674H133.564V21.2191H130.075V6.03674Z" fill="white"/>
<path d="M137.141 6.03674H140.635V18.3537H148.193V21.2191H137.136L137.141 6.03674Z" fill="white"/>
<path d="M161.837 18.4005V21.2051H150.158V6.03674H161.558V8.84137H153.628V12.1415H160.634V14.8713H153.628V18.4005H161.837Z" fill="white"/>
<path d="M184.428 21.2191V12.1088L179.987 19.6111H178.417L173.999 12.3051V21.2191H170.724V6.03674H173.609L179.258 15.4696L184.832 6.03674H187.68L187.722 21.2191H184.428Z" fill="white"/>
<path d="M191.299 6.03674H194.788V21.2191H191.299V6.03674Z" fill="white"/>
<path d="M198.365 6.03674H201.854V18.3537H209.421V21.2191H198.365V6.03674Z" fill="white"/>
<path d="M211.372 6.03674H214.866V18.3537H222.429V21.2191H211.372V6.03674Z" fill="white"/>
<path d="M233.625 8.90214H228.798V6.03674H241.945V8.90214H237.113V21.2191H233.625V8.90214Z" fill="white"/>
<path d="M252.996 17.9798H245.996L244.658 21.2518H241.104L247.826 6.06946H251.278L258.023 21.2518H254.358L252.996 17.9798ZM251.9 15.3107L249.508 9.50045L247.115 15.3107H251.9Z" fill="white"/>
<path d="M261.08 20.9901C260.115 20.7363 259.205 20.307 258.395 19.7233L259.579 17.0776C260.287 17.5843 261.071 17.9726 261.902 18.2275C262.765 18.5094 263.666 18.6544 264.573 18.6576C265.334 18.7032 266.093 18.5418 266.77 18.1901C266.975 18.0768 267.146 17.9113 267.267 17.7103C267.388 17.5092 267.453 17.2797 267.458 17.0449C267.461 16.8732 267.424 16.7031 267.352 16.5476C267.279 16.3921 267.173 16.2553 267.04 16.1474C266.72 15.8891 266.354 15.694 265.962 15.5725C265.498 15.4276 264.931 15.2686 264.183 15.105C263.226 14.8712 262.283 14.5825 261.358 14.2403C260.629 13.9653 259.981 13.5104 259.472 12.9174C258.922 12.2324 258.642 11.3667 258.687 10.4867C258.677 9.63338 258.925 8.79706 259.398 8.08878C259.937 7.33088 260.682 6.74637 261.544 6.40601C262.657 5.9594 263.849 5.74626 265.047 5.77964C265.997 5.77915 266.944 5.89531 267.867 6.12554C268.719 6.32901 269.534 6.66493 270.282 7.12119L269.205 9.79026C267.939 9.03158 266.497 8.62056 265.024 8.59829C264.272 8.54133 263.521 8.70363 262.859 9.06573C262.643 9.19582 262.465 9.38023 262.342 9.60075C262.219 9.82127 262.156 10.0703 262.157 10.3231C262.157 10.5766 262.234 10.8241 262.379 11.0316C262.524 11.2392 262.729 11.3966 262.966 11.4824C263.76 11.8162 264.587 12.0668 265.433 12.2303C266.389 12.4503 267.332 12.725 268.257 13.053C268.983 13.3239 269.631 13.772 270.143 14.3571C270.696 15.0319 270.976 15.8913 270.928 16.7644C270.933 17.6112 270.682 18.4394 270.208 19.139C269.667 19.9064 268.917 20.5004 268.048 20.8498C266.931 21.2955 265.737 21.5086 264.536 21.4762C263.367 21.4809 262.203 21.3172 261.08 20.9901Z" fill="white"/>
<path d="M287.155 6.03674V21.2191H283.666V14.9929H276.809V21.2191H273.321V6.03674H276.809V12.0246H283.666V6.03674H287.155Z" fill="white"/>
<path d="M296.228 15.2546L294.202 17.3815V21.2191H290.732V6.03674H294.202V13.1278L300.883 6.03674H304.748L298.513 12.8052L305.129 21.2191H301.055L296.228 15.2546Z" fill="white"/>
<path d="M318.364 18.4005V21.2051H306.68V6.03674H318.08V8.84137H310.15V12.1415H317.156V14.8713H310.15V18.4005H318.364Z" fill="white"/>
<path d="M334.976 6.03674V21.2191H332.11L324.589 12.0013V21.2191H321.142V6.03674H324.031L331.529 15.2546V6.03674H334.976Z" fill="white"/>
<path d="M341.68 8.90214H336.853V6.03674H350V8.90214H345.164V21.2191H341.68V8.90214Z" fill="white"/>
<path d="M85.9426 33.7979V44.2825H84.8555V39.4445H78.3517V44.2825H77.2461V33.7979H78.3517V38.4722H84.8555V33.7979H85.9426Z" fill="white"/>
<path d="M90.2583 43.8384C89.6632 43.5111 89.1684 43.0261 88.8275 42.4361C88.486 41.8008 88.3071 41.0899 88.3071 40.3676C88.3071 39.6454 88.486 38.9345 88.8275 38.2992C89.1684 37.7092 89.6632 37.2242 90.2583 36.8969C90.8867 36.5625 91.5869 36.3877 92.2977 36.3877C93.0086 36.3877 93.7087 36.5625 94.3371 36.8969C94.9302 37.2238 95.4221 37.7091 95.7587 38.2992C96.0943 38.9364 96.2697 39.6465 96.2697 40.3676C96.2697 41.0888 96.0943 41.7989 95.7587 42.4361C95.4215 43.0258 94.9298 43.5109 94.3371 43.8384C93.7106 44.1788 93.0098 44.357 92.2977 44.357C91.5857 44.357 90.8849 44.1788 90.2583 43.8384ZM93.7936 43.0297C94.2354 42.7775 94.5939 42.4004 94.8249 41.9453C95.0722 41.4483 95.201 40.9001 95.201 40.3443C95.201 39.7885 95.0722 39.2403 94.8249 38.7433C94.5929 38.2877 94.2347 37.9094 93.7936 37.6542C93.3336 37.4058 92.8197 37.2758 92.2977 37.2758C91.7757 37.2758 91.2618 37.4058 90.8019 37.6542C90.3591 37.9103 89.9982 38.2881 89.7613 38.7433C89.5108 39.2393 89.3802 39.7879 89.3802 40.3443C89.3802 40.9007 89.5108 41.4492 89.7613 41.9453C89.9969 42.4001 90.3583 42.7768 90.8019 43.0297C91.2608 43.2813 91.7751 43.4131 92.2977 43.4131C92.8204 43.4131 93.3347 43.2813 93.7936 43.0297Z" fill="white"/>
<path d="M98.7039 44.0815C98.2092 43.9414 97.7467 43.7048 97.3428 43.385L97.8073 42.5436C98.1788 42.8271 98.5971 43.0423 99.043 43.1793C99.5433 43.3467 100.067 43.4304 100.595 43.4271C101.143 43.4648 101.692 43.3482 102.179 43.0905C102.337 42.9929 102.468 42.8553 102.558 42.6914C102.647 42.5274 102.693 42.3427 102.69 42.1556C102.697 42.0278 102.675 41.9 102.626 41.7818C102.577 41.6636 102.502 41.5581 102.406 41.4732C102.199 41.298 101.957 41.1703 101.696 41.0992C101.318 40.995 100.935 40.9123 100.548 40.8515C100.03 40.7609 99.5185 40.6392 99.0152 40.4869C98.6315 40.3624 98.2881 40.1364 98.021 39.8325C97.7314 39.4879 97.5849 39.0442 97.6122 38.5938C97.6067 38.2775 97.6784 37.9647 97.821 37.6827C97.9635 37.4007 98.1726 37.1582 98.4298 36.9764C99.0985 36.5189 99.8989 36.297 100.706 36.3454C101.219 36.3455 101.73 36.413 102.225 36.5464C102.668 36.6549 103.09 36.8349 103.475 37.0793L103.01 37.9347C102.325 37.471 101.513 37.2341 100.688 37.2569C100.155 37.2214 99.6247 37.3467 99.1638 37.6168C99.0065 37.7162 98.8767 37.8541 98.7865 38.0175C98.6963 38.181 98.6488 38.3648 98.6482 38.5517C98.6428 38.6858 98.6661 38.8195 98.7166 38.9437C98.7671 39.0679 98.8436 39.1797 98.9408 39.2716C99.1467 39.4588 99.3933 39.5949 99.6609 39.6689C100.052 39.7771 100.449 39.8645 100.85 39.9306C101.358 40.0217 101.861 40.1419 102.355 40.2906C102.726 40.405 103.059 40.6163 103.322 40.9029C103.606 41.2336 103.751 41.6629 103.726 42.0996C103.734 42.4241 103.659 42.7452 103.508 43.0324C103.358 43.3196 103.137 43.5633 102.866 43.7403C102.157 44.185 101.327 44.3973 100.492 44.3479C99.8864 44.3492 99.2836 44.2594 98.7039 44.0815Z" fill="white"/>
<path d="M105.691 34.457C105.616 34.3888 105.557 34.3058 105.516 34.2133C105.475 34.1207 105.454 34.0207 105.454 33.9194C105.453 33.8214 105.473 33.7244 105.511 33.6344C105.55 33.5443 105.606 33.4631 105.677 33.3959C105.826 33.2549 106.023 33.1764 106.227 33.1764C106.432 33.1764 106.629 33.2549 106.778 33.3959C106.849 33.4619 106.906 33.5422 106.944 33.6315C106.982 33.7209 107.002 33.8174 107.001 33.9147C107.002 34.017 106.983 34.1185 106.945 34.2132C106.906 34.3079 106.85 34.3939 106.778 34.4662C106.706 34.5385 106.62 34.5956 106.526 34.6342C106.432 34.6727 106.331 34.6919 106.23 34.6907C106.129 34.69 106.029 34.669 105.937 34.6289C105.844 34.5887 105.76 34.5303 105.691 34.457ZM105.691 36.4062H106.75V44.2825H105.691V36.4062Z" fill="white"/>
<path d="M116.524 40.6739H109.979C109.993 41.0501 110.083 41.4194 110.243 41.76C110.403 42.1005 110.629 42.4051 110.908 42.6558C111.501 43.1717 112.266 43.4423 113.049 43.4131C113.509 43.4202 113.964 43.3311 114.387 43.1513C114.795 42.9795 115.157 42.7156 115.446 42.38L116.041 43.0672C115.692 43.4898 115.245 43.8203 114.74 44.0301C114.195 44.2536 113.61 44.3649 113.022 44.3573C112.277 44.3722 111.541 44.1935 110.885 43.8385C110.28 43.5162 109.776 43.0306 109.43 42.4361C109.08 41.8037 108.9 41.0896 108.91 40.3654C108.899 39.6448 109.072 38.9334 109.412 38.2993C109.73 37.7143 110.203 37.229 110.778 36.897C111.374 36.5528 112.051 36.3767 112.738 36.3875C113.421 36.376 114.094 36.5522 114.685 36.897C115.256 37.2302 115.726 37.7154 116.041 38.2993C116.376 38.9368 116.546 39.6491 116.534 40.3701L116.524 40.6739ZM110.847 37.9861C110.336 38.4781 110.026 39.1452 109.979 39.8559H115.53C115.481 39.1447 115.17 38.4776 114.657 37.9861C114.132 37.5166 113.454 37.2573 112.752 37.2573C112.05 37.2573 111.372 37.5166 110.847 37.9861Z" fill="white"/>
<path d="M120.821 36.752C121.384 36.4629 122.011 36.3229 122.642 36.3453V37.3784H122.391C122.033 37.3583 121.675 37.4159 121.341 37.5474C121.006 37.6788 120.704 37.881 120.454 38.1403C119.959 38.7384 119.71 39.5043 119.757 40.2812V44.2965H118.698V36.4061H119.711V37.9487C119.94 37.4379 120.331 37.0174 120.821 36.752Z" fill="white"/>
<path d="M131.469 36.4061L127.553 45.2267C127.328 45.8378 126.949 46.3792 126.452 46.7973C126.016 47.1144 125.489 47.2786 124.951 47.2647C124.59 47.2674 124.232 47.2056 123.892 47.0824C123.575 46.9671 123.286 46.7837 123.047 46.5449L123.534 45.7502C123.72 45.9425 123.943 46.0948 124.189 46.1976C124.435 46.3005 124.699 46.3519 124.965 46.3485C125.3 46.3618 125.629 46.2559 125.894 46.0494C126.204 45.7686 126.446 45.42 126.6 45.0304L126.944 44.2684L123.432 36.4061H124.533L127.478 43.0998L130.428 36.4061H131.469Z" fill="white"/>
<path d="M136.839 34.4569C136.767 34.3876 136.711 34.304 136.672 34.2115C136.634 34.1191 136.615 34.0196 136.616 33.9194C136.616 33.8214 136.635 33.7244 136.674 33.6343C136.712 33.5443 136.768 33.4631 136.839 33.3959C136.989 33.2545 137.187 33.1759 137.392 33.1759C137.597 33.1759 137.795 33.2545 137.945 33.3959C138.016 33.4619 138.073 33.5421 138.111 33.6315C138.149 33.7209 138.169 33.8173 138.168 33.9147C138.17 34.0171 138.152 34.1189 138.113 34.2138C138.075 34.3087 138.018 34.3946 137.945 34.4663C137.796 34.6097 137.598 34.6898 137.392 34.6898C137.186 34.6898 136.988 34.6097 136.839 34.4663V34.4569ZM136.839 36.4062H137.894V44.2825H136.858L136.839 36.4062Z" fill="white"/>
<path d="M147.194 37.2055C147.501 37.5427 147.736 37.9391 147.885 38.3707C148.035 38.8022 148.095 39.2599 148.063 39.7157V44.2826H147.008V39.8185C147.056 39.1385 146.835 38.467 146.395 37.9488C146.166 37.725 145.894 37.5519 145.594 37.4408C145.295 37.3297 144.976 37.283 144.658 37.3037C144.289 37.2865 143.92 37.3465 143.576 37.4801C143.231 37.6137 142.918 37.8178 142.655 38.0797C142.4 38.3608 142.203 38.6905 142.076 39.0493C141.95 39.4081 141.895 39.7889 141.917 40.1691V44.3013H140.862V36.4062H141.87V37.86C142.16 37.3781 142.58 36.9903 143.083 36.7428C143.635 36.4678 144.246 36.3315 144.862 36.3455C145.288 36.325 145.714 36.3905 146.115 36.5382C146.515 36.686 146.882 36.9128 147.194 37.2055Z" fill="white"/>
<path d="M158.111 33.1715V44.2825H157.098V42.7259C156.797 43.2381 156.361 43.6569 155.839 43.9366C155.295 44.2227 154.688 44.3673 154.074 44.3573C153.377 44.3675 152.689 44.1917 152.081 43.8478C151.497 43.5179 151.015 43.0328 150.687 42.4455C150.355 41.8024 150.181 41.088 150.181 40.363C150.181 39.638 150.355 38.9237 150.687 38.2806C151.014 37.692 151.496 37.2064 152.081 36.8783C152.692 36.5417 153.378 36.3694 154.074 36.3781C154.672 36.3691 155.263 36.5054 155.798 36.7755C156.312 37.041 156.745 37.4416 157.052 37.9347V33.1715H158.111ZM155.649 43.0298C156.09 42.7741 156.451 42.3982 156.69 41.9453C156.937 41.4483 157.066 40.9002 157.066 40.3443C157.066 39.7885 156.937 39.2404 156.69 38.7434C156.45 38.2902 156.089 37.9131 155.649 37.6542C155.191 37.4059 154.68 37.2759 154.16 37.2759C153.64 37.2759 153.129 37.4059 152.671 37.6542C152.228 37.9115 151.866 38.2889 151.626 38.7434C151.379 39.2404 151.25 39.7885 151.25 40.3443C151.25 40.9002 151.379 41.4483 151.626 41.9453C151.865 42.3995 152.227 42.7756 152.671 43.0298C153.128 43.2814 153.64 43.4133 154.16 43.4133C154.68 43.4133 155.192 43.2814 155.649 43.0298Z" fill="white"/>
<path d="M168.113 36.4061V44.2825H167.1V42.8428C166.831 43.317 166.433 43.7044 165.953 43.9599C165.439 44.2323 164.866 44.369 164.285 44.3572C163.835 44.4005 163.382 44.3422 162.957 44.1866C162.533 44.0309 162.148 43.7818 161.832 43.4575C161.515 43.1331 161.275 42.7418 161.128 42.3119C160.981 41.8821 160.931 41.4246 160.982 40.973V36.4061H162.037V40.8842C161.992 41.5639 162.212 42.2345 162.65 42.7539C162.879 42.9783 163.153 43.1517 163.453 43.2628C163.753 43.374 164.073 43.4204 164.392 43.399C164.751 43.418 165.11 43.3604 165.446 43.2299C165.781 43.0994 166.085 42.8989 166.338 42.6418C166.843 42.0629 167.1 41.3069 167.054 40.5383V36.4061H168.113Z" fill="white"/>
<path d="M171.346 44.0815C170.852 43.9403 170.39 43.7037 169.985 43.385L170.45 42.5436C170.821 42.828 171.239 43.0433 171.685 43.1793C172.184 43.3467 172.707 43.4304 173.232 43.427C173.781 43.4655 174.33 43.3489 174.816 43.0905C174.976 42.9938 175.108 42.8566 175.199 42.6925C175.289 42.5284 175.335 42.3432 175.332 42.1556C175.338 42.0279 175.316 41.9004 175.267 41.7824C175.218 41.6643 175.143 41.5587 175.049 41.4732C174.84 41.2984 174.596 41.1709 174.333 41.0992C173.956 40.9945 173.573 40.9118 173.186 40.8515C172.668 40.7598 172.156 40.6381 171.653 40.4869C171.272 40.3655 170.931 40.1445 170.663 39.8465C170.374 39.5019 170.227 39.0582 170.255 38.6078C170.25 38.2917 170.322 37.9793 170.465 37.6975C170.607 37.4158 170.816 37.1731 171.072 36.9904C171.741 36.5335 172.541 36.3117 173.348 36.3594C173.861 36.3594 174.372 36.427 174.868 36.5604C175.31 36.6683 175.732 36.8483 176.117 37.0933L175.653 37.9487C174.968 37.4844 174.155 37.2474 173.33 37.2709C172.798 37.2359 172.267 37.3612 171.806 37.6308C171.649 37.7304 171.52 37.8685 171.431 38.032C171.341 38.1955 171.295 38.3791 171.295 38.5657C171.289 38.6994 171.312 38.8329 171.361 38.9571C171.411 39.0813 171.487 39.1933 171.583 39.2855C171.79 39.472 172.036 39.6079 172.303 39.6829C172.696 39.791 173.095 39.8784 173.497 39.9446C174.004 40.0362 174.505 40.1564 174.998 40.3046C175.369 40.4189 175.704 40.6301 175.969 40.9169C176.249 41.2495 176.392 41.6779 176.368 42.1135C176.377 42.4377 176.303 42.7587 176.153 43.046C176.004 43.3332 175.783 43.577 175.513 43.7543C174.803 44.1984 173.974 44.4107 173.139 44.3619C172.531 44.359 171.927 44.2645 171.346 44.0815Z" fill="white"/>
<path d="M182.472 43.801C182.259 43.9901 182.009 44.1319 181.738 44.217C181.438 44.3123 181.124 44.3596 180.809 44.3572C180.5 44.3764 180.191 44.3334 179.899 44.2307C179.607 44.1279 179.338 43.9675 179.109 43.7589C178.902 43.5314 178.743 43.2643 178.641 42.9736C178.539 42.6829 178.496 42.3745 178.514 42.0668V37.3036H177.121V36.4061H178.514V34.6813H179.573V36.4061H181.952V37.3036H179.573V42.006C179.546 42.3949 179.671 42.7792 179.922 43.0765C180.055 43.2045 180.212 43.3035 180.385 43.3671C180.558 43.4306 180.742 43.4574 180.925 43.4457C181.14 43.4458 181.354 43.4094 181.557 43.3382C181.752 43.2746 181.931 43.1729 182.087 43.0391L182.472 43.801Z" fill="white"/>
<path d="M186.514 36.752C187.077 36.4641 187.704 36.3242 188.335 36.3454V37.3784H188.084C187.726 37.3586 187.367 37.4164 187.033 37.5478C186.699 37.6793 186.397 37.8813 186.147 38.1403C185.652 38.7384 185.403 39.5043 185.45 40.2812V44.2965H184.391V36.4061H185.404V37.9487C185.635 37.4389 186.024 37.0188 186.514 36.752Z" fill="white"/>
<path d="M197.162 36.4061L193.255 45.2267C193.027 45.8363 192.648 46.377 192.154 46.7973C191.716 47.1138 191.187 47.2779 190.649 47.2647C190.288 47.2674 189.929 47.2056 189.589 47.0824C189.272 46.9671 188.984 46.7837 188.744 46.5449L189.236 45.7502C189.421 45.9424 189.643 46.0946 189.888 46.1975C190.133 46.3004 190.397 46.3518 190.663 46.3485C190.998 46.3618 191.326 46.2559 191.592 46.0494C191.903 45.7698 192.145 45.4209 192.298 45.0304L192.642 44.2684L189.143 36.4061H190.244L193.194 43.0998L196.14 36.4061H197.162Z" fill="white"/>
</g>
<defs>
<clipPath id="clip0_66_408">
<rect width="350" height="55.2184" fill="white" transform="translate(0 0.68457)"/>
</clipPath>
</defs>
</svg>
