<svg width="20" height="12" viewBox="0 0 20 12" fill="none" xmlns="http://www.w3.org/2000/svg">
<path d="M0.959601 9.45956C0.569077 9.85009 0.569077 10.4833 0.959601 10.8738C1.35013 11.2643 1.98329 11.2643 2.37381 10.8738L0.959601 9.45956ZM10 1.83334L10.7071 1.12623C10.3166 0.735708 9.68346 0.735708 9.29294 1.12623L10 1.83334ZM17.6263 10.8738C18.0168 11.2643 18.65 11.2643 19.0405 10.8738C19.431 10.4833 19.431 9.85009 19.0405 9.45956L17.6263 10.8738ZM2.37381 10.8738L10.7071 2.54045L9.29294 1.12623L0.959601 9.45956L2.37381 10.8738ZM9.29293 2.54045L17.6263 10.8738L19.0405 9.45956L10.7071 1.12623L9.29293 2.54045Z" fill="white"/>
</svg>
