<svg width="46" height="24" viewBox="0 0 46 24" fill="none" xmlns="http://www.w3.org/2000/svg">
<path d="M45.3737 1.87373C45.7642 1.48321 45.7642 0.850043 45.3737 0.459519C44.9832 0.0689949 44.35 0.0689949 43.9595 0.459519L45.3737 1.87373ZM22.9999 22.8333L22.2928 23.5404C22.4803 23.7279 22.7347 23.8333 22.9999 23.8333C23.2651 23.8333 23.5195 23.7279 23.707 23.5404L22.9999 22.8333ZM2.04036 0.459519C1.64983 0.0689949 1.01667 0.0689949 0.626145 0.459519C0.235621 0.850043 0.235621 1.48321 0.626145 1.87373L2.04036 0.459519ZM43.9595 0.459519L22.2928 22.1262L23.707 23.5404L45.3737 1.87373L43.9595 0.459519ZM23.707 22.1262L2.04036 0.459519L0.626145 1.87373L22.2928 23.5404L23.707 22.1262Z" fill="white"/>
</svg>
