<svg width="20" height="21" viewBox="0 0 20 21" fill="none" xmlns="http://www.w3.org/2000/svg">
<path d="M10 2.40511C12.6667 2.40511 13 2.40511 14.0833 2.48844C16.8333 2.57178 18.0833 3.90511 18.1667 6.57178C18.25 7.65511 18.25 7.90511 18.25 10.5718C18.25 13.2384 18.25 13.5718 18.1667 14.5718C18.0833 17.2384 16.75 18.5718 14.0833 18.6551C13 18.7384 12.75 18.7384 10 18.7384C7.33333 18.7384 7 18.7384 6 18.6551C3.25 18.5718 2 17.2384 1.91667 14.5718C1.83333 13.4884 1.83333 13.2384 1.83333 10.5718C1.83333 7.90511 1.83333 7.57178 1.91667 6.57178C2 3.90511 3.33333 2.57178 6 2.48844C7 2.40511 7.33333 2.40511 10 2.40511ZM10 0.571777C7.25 0.571777 6.91667 0.571777 5.91667 0.655111C2.25 0.821777 0.25 2.82178 0.0833333 6.48844C0 7.48844 0 7.82178 0 10.5718C0 13.3218 0 13.6551 0.0833333 14.6551C0.25 18.3218 2.25 20.3218 5.91667 20.4884C6.91667 20.5718 7.25 20.5718 10 20.5718C12.75 20.5718 13.0833 20.5718 14.0833 20.4884C17.75 20.3218 19.75 18.3218 19.9167 14.6551C20 13.6551 20 13.3218 20 10.5718C20 7.82178 20 7.48844 19.9167 6.48844C19.75 2.82178 17.75 0.821777 14.0833 0.655111C13.0833 0.571777 12.75 0.571777 10 0.571777ZM10 5.40511C7.16667 5.40511 4.83333 7.73844 4.83333 10.5718C4.83333 13.4051 7.16667 15.7384 10 15.7384C12.8333 15.7384 15.1667 13.4051 15.1667 10.5718C15.1667 7.73844 12.8333 5.40511 10 5.40511ZM10 13.9051C8.16667 13.9051 6.66667 12.4051 6.66667 10.5718C6.66667 8.73844 8.16667 7.23844 10 7.23844C11.8333 7.23844 13.3333 8.73844 13.3333 10.5718C13.3333 12.4051 11.8333 13.9051 10 13.9051ZM15.3333 4.07178C14.6667 4.07178 14.1667 4.57178 14.1667 5.23844C14.1667 5.90511 14.6667 6.40511 15.3333 6.40511C16 6.40511 16.5 5.90511 16.5 5.23844C16.5 4.57178 16 4.07178 15.3333 4.07178Z" fill="white"/>
</svg>
