<svg width="20" height="16" viewBox="0 0 20 16" fill="none" xmlns="http://www.w3.org/2000/svg">
<path fill-rule="evenodd" clip-rule="evenodd" d="M1.3749 6.91005C6.74359 4.78615 10.3236 3.38596 12.1148 2.70945C17.2292 0.777883 18.2919 0.44235 18.9846 0.43127C19.1369 0.428834 19.4776 0.463116 19.6982 0.625688C19.8845 0.76296 19.9358 0.948395 19.9603 1.07854C19.9848 1.20869 20.0154 1.50518 19.9911 1.73684C19.714 4.381 18.5147 10.7977 17.9046 13.7592C17.6465 15.0123 17.1382 15.4325 16.6461 15.4736C15.5766 15.563 14.7645 14.8319 13.7287 14.2153C12.1078 13.2506 11.1921 12.65 9.61879 11.7086C7.80053 10.6206 8.97923 10.0226 10.0154 9.04534C10.2866 8.78959 14.9987 4.89785 15.0899 4.54481C15.1013 4.50066 15.1119 4.33607 15.0042 4.24916C14.8965 4.16226 14.7376 4.19198 14.6229 4.21561C14.4604 4.24911 11.871 5.80315 6.85486 8.87771C6.11988 9.33598 5.45416 9.55926 4.8577 9.54756C4.20015 9.53466 2.93528 9.20997 1.99498 8.93243C0.84166 8.59202 -0.074973 8.41204 0.00484519 7.83392C0.0464194 7.53279 0.503103 7.22484 1.3749 6.91005Z" fill="white"/>
</svg>
