<svg width="23" height="22" viewBox="0 0 23 22" fill="none" xmlns="http://www.w3.org/2000/svg">
<path d="M2.67962 2.54242L4.60868 0.613357C4.99921 0.222832 5.63237 0.222833 6.0229 0.613358L9.66131 4.25177C10.0518 4.6423 10.0518 5.27546 9.66131 5.66599L7.21113 8.11617C6.8336 8.4937 6.74 9.07047 6.97878 9.54802C8.3591 12.3087 10.5976 14.5471 13.3582 15.9275C13.8358 16.1662 14.4125 16.0727 14.7901 15.6951L17.2403 13.2449C17.6308 12.8544 18.264 12.8544 18.6545 13.2449L22.2929 16.8834C22.6834 17.2739 22.6834 17.907 22.2929 18.2976L20.3638 20.2266C18.2525 22.338 14.9099 22.5755 12.5212 20.784L9.20752 18.2987C7.46399 16.9911 5.91517 15.4423 4.60752 13.6987L2.12226 10.3851C0.330722 7.99634 0.568272 4.65377 2.67962 2.54242Z" fill="#C40201"/>
</svg>
