<svg width="17" height="18" viewBox="0 0 17 18" fill="none" xmlns="http://www.w3.org/2000/svg">
<path d="M11.5482 8.06786C11.7922 7.82388 11.7922 7.42832 11.5482 7.18434C11.3043 6.94036 10.9087 6.94036 10.6647 7.18434L11.5482 8.06786ZM8.32985 10.4027L7.8881 10.8445C8.00526 10.9617 8.16416 11.0275 8.32985 11.0275C8.49555 11.0275 8.65445 10.9617 8.77161 10.8445L8.32985 10.4027ZM5.99498 7.18434C5.75101 6.94036 5.35544 6.94036 5.11146 7.18434C4.86749 7.42832 4.86749 7.82388 5.11146 8.06786L5.99498 7.18434ZM10.6647 7.18434L7.8881 9.96097L8.77161 10.8445L11.5482 8.06786L10.6647 7.18434ZM8.77161 9.96097L5.99498 7.18434L5.11146 8.06786L7.8881 10.8445L8.77161 9.96097Z" fill="white"/>
</svg>
