<svg width="22" height="16" viewBox="0 0 22 16" fill="none" xmlns="http://www.w3.org/2000/svg">
<path d="M21.7071 8.70711C22.0976 8.31658 22.0976 7.68342 21.7071 7.2929L15.3431 0.928934C14.9526 0.538409 14.3195 0.538409 13.9289 0.928933C13.5384 1.31946 13.5384 1.95262 13.9289 2.34315L19.5858 8L13.9289 13.6569C13.5384 14.0474 13.5384 14.6805 13.9289 15.0711C14.3195 15.4616 14.9526 15.4616 15.3431 15.0711L21.7071 8.70711ZM-8.74228e-08 9C0.0160175 9 0.0320214 9 0.0480115 9C0.0640017 9 0.0799782 9 0.095941 9C0.111904 9 0.127853 9 0.143789 9C0.159724 9 0.175646 9 0.191555 9C0.207463 9 0.223358 9 0.23924 9C0.255121 9 0.270989 9 0.286844 9C0.302698 9 0.31854 9 0.334367 9C0.350195 9 0.36601 9 0.381811 9C0.397612 9 0.4134 9 0.429174 9C0.444949 9 0.46071 9 0.476458 9C0.492206 9 0.507941 9 0.523663 9C0.539385 9 0.555093 9 0.570789 9C0.586484 9 0.602166 9 0.617836 9C0.633505 9 0.649161 9 0.664805 9C0.680448 9 0.696078 9 0.711696 9C0.727313 9 0.742917 9 0.758509 9C0.7741 9 0.789679 9 0.805245 9C0.820811 9 0.836364 9 0.851904 9C0.867444 9 0.882971 9 0.898486 9C0.914001 9 0.929503 9 0.944992 9C0.960481 9 0.975958 9 0.991422 9C1.00689 9 1.02234 9 1.03778 9C1.05321 9 1.06864 9 1.08405 9C1.09947 9 1.11487 9 1.13026 9C1.14565 9 1.16102 9 1.17639 9C1.19175 9 1.2071 9 1.22244 9C1.23778 9 1.25311 9 1.26842 9C1.28374 9 1.29904 9 1.31433 9C1.32962 9 1.3449 9 1.36016 9C1.37543 9 1.39068 9 1.40592 9C1.42116 9 1.43639 9 1.45161 9C1.46683 9 1.48203 9 1.49723 9C1.51242 9 1.5276 9 1.54277 9C1.55794 9 1.57309 9 1.58824 9C1.60338 9 1.61852 9 1.63364 9C1.64876 9 1.66387 9 1.67897 9C1.69406 9 1.70915 9 1.72422 9C1.7393 9 1.75436 9 1.76941 9C1.78446 9 1.7995 9 1.81453 9C1.82955 9 1.84457 9 1.85957 9C1.87458 9 1.88957 9 1.90455 9C1.91953 9 1.9345 9 1.94946 9C1.96442 9 1.97936 9 1.9943 9C2.00923 9 2.02416 9 2.03907 9C2.05398 9 2.06888 9 2.08377 9C2.09866 9 2.11354 9 2.1284 9C2.14327 9 2.15813 9 2.17297 9C2.18782 9 2.20265 9 2.21747 9C2.23229 9 2.2471 9 2.2619 9C2.2767 9 2.29149 9 2.30627 9C2.32104 9 2.33581 9 2.35057 9C2.36532 9 2.38007 9 2.3948 9C2.40953 9 2.42426 9 2.43897 9C2.45368 9 2.46838 9 2.48307 9C2.49776 9 2.51244 9 2.52711 9C2.54177 9 2.55643 9 2.57108 9C2.58572 9 2.60036 9 2.61498 9C2.62961 9 2.64422 9 2.65883 9C2.67343 9 2.68803 9 2.70261 9C2.71719 9 2.73176 9 2.74632 9C2.76089 9 2.77544 9 2.78998 9C2.80452 9 2.81905 9 2.83357 9C2.84809 9 2.8626 9 2.8771 9C2.89159 9 2.90608 9 2.92056 9C2.93504 9 2.94951 9 2.96396 9C2.97842 9 2.99287 9 3.00731 9C3.02174 9 3.03617 9 3.05059 9C3.065 9 3.07941 9 3.09381 9C3.1082 9 3.12259 9 3.13697 9C3.15134 9 3.16571 9 3.18007 9C3.19442 9 3.20877 9 3.22311 9C3.23744 9 3.25177 9 3.26609 9C3.2804 9 3.29471 9 3.30901 9C3.3233 9 3.33759 9 3.35187 9C3.36615 9 3.38041 9 3.39467 9C3.40893 9 3.42318 9 3.43742 9C3.45166 9 3.46588 9 3.4801 9C3.49432 9 3.50853 9 3.52273 9C3.53693 9 3.55112 9 3.5653 9C3.57949 9 3.59366 9 3.60782 9C3.62198 9 3.63613 9 3.65028 9C3.66442 9 3.67855 9 3.69268 9C3.7068 9 3.72092 9 3.73502 9C3.74913 9 3.76323 9 3.77731 9C3.7914 9 3.80548 9 3.81955 9C3.83362 9 3.84768 9 3.86173 9C3.87578 9 3.88982 9 3.90385 9C3.91788 9 3.93191 9 3.94592 9C3.95994 9 3.97394 9 3.98794 9C4.00193 9 4.01592 9 4.0299 9C4.04388 9 4.05785 9 4.07181 9C4.08577 9 4.09972 9 4.11366 9C4.12761 9 4.14154 9 4.15547 9C4.16939 9 4.18331 9 4.19722 9C4.21113 9 4.22503 9 4.23892 9C4.25281 9 4.26669 9 4.28056 9C4.29444 9 4.3083 9 4.32216 9C4.33601 9 4.34986 9 4.3637 9C4.37754 9 4.39137 9 4.40519 9C4.41902 9 4.43283 9 4.44663 9C4.46044 9 4.47424 9 4.48803 9C4.50182 9 4.5156 9 4.52937 9C4.54314 9 4.5569 9 4.57066 9C4.58442 9 4.59816 9 4.6119 9C4.62564 9 4.63937 9 4.6531 9C4.66682 9 4.68054 9 4.69424 9C4.70795 9 4.72165 9 4.73534 9C4.74903 9 4.76271 9 4.77639 9C4.79006 9 4.80373 9 4.81739 9C4.83105 9 4.8447 9 4.85834 9C4.87199 9 4.88562 9 4.89925 9C4.91288 9 4.9265 9 4.94011 9C4.95372 9 4.96733 9 4.98092 9C4.99452 9 5.00811 9 5.02169 9C5.03527 9 5.04885 9 5.06241 9C5.07598 9 5.08954 9 5.10309 9C5.11664 9 5.13019 9 5.14372 9C5.15726 9 5.17079 9 5.18431 9C5.19783 9 5.21134 9 5.22485 9C5.23836 9 5.25186 9 5.26535 9C5.27884 9 5.29233 9 5.3058 9C5.31928 9 5.33275 9 5.34621 9C5.35968 9 5.37313 9 5.38658 9C5.40003 9 5.41347 9 5.42691 9C5.44034 9 5.45377 9 5.46719 9C5.48061 9 5.49402 9 5.50743 9C5.52084 9 5.53423 9 5.54763 9C5.56102 9 5.57441 9 5.58778 9C5.60116 9 5.61453 9 5.6279 9C5.64126 9 5.65462 9 5.66797 9C5.68133 9 5.69467 9 5.70801 9C5.72135 9 5.73468 9 5.748 9C5.76133 9 5.77464 9 5.78796 9C5.80127 9 5.81457 9 5.82787 9C5.84117 9 5.85446 9 5.86774 9C5.88103 9 5.89431 9 5.90758 9C5.92085 9 5.93412 9 5.94738 9C5.96064 9 5.97389 9 5.98714 9C6.00038 9 6.01362 9 6.02686 9C6.04009 9 6.05332 9 6.06654 9C6.07976 9 6.09298 9 6.10619 9C6.11939 9 6.1326 9 6.14579 9C6.15899 9 6.17218 9 6.18537 9C6.19855 9 6.21173 9 6.2249 9C6.23807 9 6.25124 9 6.2644 9C6.27756 9 6.29072 9 6.30386 9C6.31701 9 6.33016 9 6.34329 9C6.35643 9 6.36956 9 6.38269 9C6.39581 9 6.40893 9 6.42205 9C6.43516 9 6.44827 9 6.46137 9C6.47447 9 6.48757 9 6.50066 9C6.51375 9 6.52683 9 6.53991 9C6.55299 9 6.56607 9 6.57914 9C6.59221 9 6.60527 9 6.61833 9C6.63138 9 6.64444 9 6.65748 9C6.67053 9 6.68357 9 6.69661 9C6.70964 9 6.72267 9 6.7357 9C6.74872 9 6.76174 9 6.77476 9C6.78777 9 6.80078 9 6.81379 9C6.82679 9 6.83979 9 6.85278 9C6.86578 9 6.87877 9 6.89175 9C6.90473 9 6.91771 9 6.93068 9C6.94366 9 6.95663 9 6.96959 9C6.98255 9 6.99551 9 7.00847 9C7.02142 9 7.03437 9 7.04731 9C7.06025 9 7.07319 9 7.08613 9C7.09906 9 7.11199 9 7.12491 9C7.13784 9 7.15076 9 7.16367 9C7.17659 9 7.1895 9 7.2024 9C7.21531 9 7.22821 9 7.2411 9C7.254 9 7.26689 9 7.27978 9C7.29267 9 7.30555 9 7.31843 9C7.3313 9 7.34418 9 7.35705 9C7.36992 9 7.38278 9 7.39564 9C7.4085 9 7.42136 9 7.43421 9C7.44706 9 7.45991 9 7.47275 9C7.48559 9 7.49843 9 7.51126 9C7.5241 9 7.53693 9 7.54975 9C7.56258 9 7.5754 9 7.58822 9C7.60103 9 7.61385 9 7.62666 9C7.63947 9 7.65227 9 7.66507 9C7.67787 9 7.69067 9 7.70346 9C7.71626 9 7.72904 9 7.74183 9C7.75462 9 7.7674 9 7.78017 9C7.79295 9 7.80572 9 7.81849 9C7.83126 9 7.84403 9 7.85679 9C7.86955 9 7.88231 9 7.89507 9C7.90782 9 7.92057 9 7.93332 9C7.94607 9 7.95881 9 7.97155 9C7.98429 9 7.99703 9 8.00976 9C8.02249 9 8.03522 9 8.04795 9C8.06067 9 8.0734 9 8.08611 9C8.09883 9 8.11155 9 8.12426 9C8.13697 9 8.14968 9 8.16239 9C8.17509 9 8.1878 9 8.20049 9C8.21319 9 8.22589 9 8.23858 9C8.25127 9 8.26396 9 8.27665 9C8.28933 9 8.30202 9 8.3147 9C8.32738 9 8.34005 9 8.35273 9C8.3654 9 8.37807 9 8.39074 9C8.4034 9 8.41607 9 8.42873 9C8.44139 9 8.45405 9 8.46671 9C8.47936 9 8.49201 9 8.50466 9C8.51731 9 8.52996 9 8.5426 9C8.55525 9 8.56789 9 8.58053 9C8.59317 9 8.6058 9 8.61844 9C8.63107 9 8.6437 9 8.65633 9C8.66896 9 8.68158 9 8.6942 9C8.70683 9 8.71945 9 8.73207 9C8.74468 9 8.7573 9 8.76991 9C8.78252 9 8.79513 9 8.80774 9C8.82035 9 8.83295 9 8.84556 9C8.85816 9 8.87076 9 8.88336 9C8.89596 9 8.90855 9 8.92115 9C8.93374 9 8.94633 9 8.95892 9C8.97151 9 8.9841 9 8.99668 9C9.00927 9 9.02185 9 9.03443 9C9.04701 9 9.05959 9 9.07217 9C9.08474 9 9.09732 9 9.10989 9C9.12246 9 9.13503 9 9.1476 9C9.16017 9 9.17274 9 9.1853 9C9.19787 9 9.21043 9 9.22299 9C9.23555 9 9.24811 9 9.26067 9C9.27323 9 9.28578 9 9.29833 9C9.31089 9 9.32344 9 9.33599 9C9.34854 9 9.36109 9 9.37364 9C9.38619 9 9.39873 9 9.41128 9C9.42382 9 9.43636 9 9.4489 9C9.46145 9 9.47398 9 9.48652 9C9.49906 9 9.5116 9 9.52413 9C9.53667 9 9.5492 9 9.56174 9C9.57427 9 9.5868 9 9.59933 9C9.61186 9 9.62439 9 9.63692 9C9.64944 9 9.66197 9 9.67449 9C9.68702 9 9.69954 9 9.71206 9C9.72459 9 9.73711 9 9.74963 9C9.76215 9 9.77467 9 9.78719 9C9.79971 9 9.81222 9 9.82474 9C9.83726 9 9.84977 9 9.86229 9C9.8748 9 9.88731 9 9.89983 9C9.91234 9 9.92485 9 9.93736 9C9.94987 9 9.96238 9 9.97489 9C9.9874 9 9.99991 9 10.0124 9C10.0249 9 10.0374 9 10.0499 9C10.0624 9 10.075 9 10.0875 9C10.1 9 10.1125 9 10.125 9C10.1375 9 10.15 9 10.1625 9C10.175 9 10.1875 9 10.2 9C10.2125 9 10.225 9 10.2375 9C10.25 9 10.2625 9 10.275 9C10.2875 9 10.3 9 10.3125 9C10.325 9 10.3375 9 10.35 9C10.3625 9 10.375 9 10.3875 9C10.4 9 10.4125 9 10.425 9C10.4375 9 10.45 9 10.4625 9C10.475 9 10.4875 9 10.5 9C10.5125 9 10.525 9 10.5375 9C10.55 9 10.5625 9 10.575 9C10.5875 9 10.6 9 10.6125 9C10.625 9 10.6375 9 10.65 9C10.6625 9 10.675 9 10.6875 9C10.7 9 10.7125 9 10.725 9C10.7375 9 10.75 9 10.7625 9C10.775 9 10.7875 9 10.8 9C10.8125 9 10.825 9 10.8375 9C10.85 9 10.8625 9 10.875 9C10.8875 9 10.9 9 10.9125 9C10.925 9 10.9376 9 10.9501 9C10.9626 9 10.9751 9 10.9876 9C11.0001 9 11.0126 9 11.0251 9C11.0376 9 11.0501 9 11.0626 9C11.0751 9 11.0877 9 11.1002 9C11.1127 9 11.1252 9 11.1377 9C11.1502 9 11.1627 9 11.1753 9C11.1878 9 11.2003 9 11.2128 9C11.2253 9 11.2379 9 11.2504 9C11.2629 9 11.2754 9 11.2879 9C11.3005 9 11.313 9 11.3255 9C11.338 9 11.3506 9 11.3631 9C11.3756 9 11.3881 9 11.4007 9C11.4132 9 11.4257 9 11.4383 9C11.4508 9 11.4633 9 11.4759 9C11.4884 9 11.5009 9 11.5135 9C11.526 9 11.5386 9 11.5511 9C11.5636 9 11.5762 9 11.5887 9C11.6013 9 11.6138 9 11.6264 9C11.6389 9 11.6515 9 11.664 9C11.6766 9 11.6891 9 11.7017 9C11.7142 9 11.7268 9 11.7393 9C11.7519 9 11.7644 9 11.777 9C11.7896 9 11.8021 9 11.8147 9C11.8273 9 11.8398 9 11.8524 9C11.865 9 11.8775 9 11.8901 9C11.9027 9 11.9153 9 11.9278 9C11.9404 9 11.953 9 11.9656 9C11.9782 9 11.9907 9 12.0033 9C12.0159 9 12.0285 9 12.0411 9C12.0537 9 12.0663 9 12.0789 9C12.0914 9 12.104 9 12.1166 9C12.1292 9 12.1418 9 12.1544 9C12.167 9 12.1797 9 12.1923 9C12.2049 9 12.2175 9 12.2301 9C12.2427 9 12.2553 9 12.2679 9C12.2806 9 12.2932 9 12.3058 9C12.3184 9 12.331 9 12.3437 9C12.3563 9 12.3689 9 12.3816 9C12.3942 9 12.4068 9 12.4195 9C12.4321 9 12.4448 9 12.4574 9C12.47 9 12.4827 9 12.4953 9C12.508 9 12.5206 9 12.5333 9C12.5459 9 12.5586 9 12.5713 9C12.5839 9 12.5966 9 12.6093 9C12.6219 9 12.6346 9 12.6473 9C12.6599 9 12.6726 9 12.6853 9C12.698 9 12.7107 9 12.7234 9C12.736 9 12.7487 9 12.7614 9C12.7741 9 12.7868 9 12.7995 9C12.8122 9 12.8249 9 12.8376 9C12.8503 9 12.863 9 12.8757 9C12.8885 9 12.9012 9 12.9139 9C12.9266 9 12.9393 9 12.9521 9C12.9648 9 12.9775 9 12.9902 9C13.003 9 13.0157 9 13.0284 9C13.0412 9 13.0539 9 13.0667 9C13.0794 9 13.0922 9 13.1049 9C13.1177 9 13.1304 9 13.1432 9C13.156 9 13.1687 9 13.1815 9C13.1943 9 13.207 9 13.2198 9C13.2326 9 13.2454 9 13.2582 9C13.271 9 13.2837 9 13.2965 9C13.3093 9 13.3221 9 13.3349 9C13.3477 9 13.3605 9 13.3733 9C13.3862 9 13.399 9 13.4118 9C13.4246 9 13.4374 9 13.4502 9C13.4631 9 13.4759 9 13.4887 9C13.5016 9 13.5144 9 13.5273 9C13.5401 9 13.5529 9 13.5658 9C13.5786 9 13.5915 9 13.6044 9C13.6172 9 13.6301 9 13.643 9C13.6558 9 13.6687 9 13.6816 9C13.6945 9 13.7073 9 13.7202 9C13.7331 9 13.746 9 13.7589 9C13.7718 9 13.7847 9 13.7976 9C13.8105 9 13.8234 9 13.8363 9C13.8492 9 13.8622 9 13.8751 9C13.888 9 13.9009 9 13.9139 9C13.9268 9 13.9397 9 13.9527 9C13.9656 9 13.9786 9 13.9915 9C14.0045 9 14.0174 9 14.0304 9C14.0434 9 14.0563 9 14.0693 9C14.0823 9 14.0953 9 14.1083 9C14.1212 9 14.1342 9 14.1472 9C14.1602 9 14.1732 9 14.1862 9C14.1992 9 14.2122 9 14.2252 9C14.2383 9 14.2513 9 14.2643 9C14.2773 9 14.2904 9 14.3034 9C14.3164 9 14.3295 9 14.3425 9C14.3556 9 14.3686 9 14.3817 9C14.3947 9 14.4078 9 14.4209 9C14.4339 9 14.447 9 14.4601 9C14.4732 9 14.4862 9 14.4993 9C14.5124 9 14.5255 9 14.5386 9C14.5517 9 14.5648 9 14.578 9C14.5911 9 14.6042 9 14.6173 9C14.6304 9 14.6436 9 14.6567 9C14.6698 9 14.683 9 14.6961 9C14.7093 9 14.7224 9 14.7356 9C14.7488 9 14.7619 9 14.7751 9C14.7883 9 14.8014 9 14.8146 9C14.8278 9 14.841 9 14.8542 9C14.8674 9 14.8806 9 14.8938 9C14.907 9 14.9202 9 14.9335 9C14.9467 9 14.9599 9 14.9731 9C14.9864 9 14.9996 9 15.0129 9C15.0261 9 15.0394 9 15.0526 9C15.0659 9 15.0791 9 15.0924 9C15.1057 9 15.119 9 15.1323 9C15.1455 9 15.1588 9 15.1721 9C15.1854 9 15.1987 9 15.212 9C15.2254 9 15.2387 9 15.252 9C15.2653 9 15.2787 9 15.292 9C15.3053 9 15.3187 9 15.332 9C15.3454 9 15.3587 9 15.3721 9C15.3855 9 15.3988 9 15.4122 9C15.4256 9 15.439 9 15.4524 9C15.4658 9 15.4792 9 15.4926 9C15.506 9 15.5194 9 15.5328 9C15.5462 9 15.5597 9 15.5731 9C15.5865 9 15.6 9 15.6134 9C15.6269 9 15.6403 9 15.6538 9C15.6672 9 15.6807 9 15.6942 9C15.7077 9 15.7212 9 15.7347 9C15.7481 9 15.7616 9 15.7751 9C15.7887 9 15.8022 9 15.8157 9C15.8292 9 15.8427 9 15.8563 9C15.8698 9 15.8834 9 15.8969 9C15.9105 9 15.924 9 15.9376 9C15.9512 9 15.9647 9 15.9783 9C15.9919 9 16.0055 9 16.0191 9C16.0327 9 16.0463 9 16.0599 9C16.0735 9 16.0871 9 16.1007 9C16.1144 9 16.128 9 16.1417 9C16.1553 9 16.169 9 16.1826 9C16.1963 9 16.2099 9 16.2236 9C16.2373 9 16.251 9 16.2647 9C16.2784 9 16.2921 9 16.3058 9C16.3195 9 16.3332 9 16.3469 9C16.3606 9 16.3744 9 16.3881 9C16.4018 9 16.4156 9 16.4293 9C16.4431 9 16.4569 9 16.4706 9C16.4844 9 16.4982 9 16.512 9C16.5258 9 16.5396 9 16.5534 9C16.5672 9 16.581 9 16.5948 9C16.6086 9 16.6225 9 16.6363 9C16.6501 9 16.664 9 16.6778 9C16.6917 9 16.7056 9 16.7194 9C16.7333 9 16.7472 9 16.7611 9C16.775 9 16.7889 9 16.8028 9C16.8167 9 16.8306 9 16.8445 9C16.8585 9 16.8724 9 16.8863 9C16.9003 9 16.9142 9 16.9282 9C16.9422 9 16.9561 9 16.9701 9C16.9841 9 16.9981 9 17.0121 9C17.0261 9 17.0401 9 17.0541 9C17.0681 9 17.0821 9 17.0961 9C17.1102 9 17.1242 9 17.1383 9C17.1523 9 17.1664 9 17.1805 9C17.1945 9 17.2086 9 17.2227 9C17.2368 9 17.2509 9 17.265 9C17.2791 9 17.2932 9 17.3073 9C17.3214 9 17.3356 9 17.3497 9C17.3639 9 17.378 9 17.3922 9C17.4063 9 17.4205 9 17.4347 9C17.4489 9 17.4631 9 17.4773 9C17.4915 9 17.5057 9 17.5199 9C17.5341 9 17.5483 9 17.5626 9C17.5768 9 17.5911 9 17.6053 9C17.6196 9 17.6339 9 17.6481 9C17.6624 9 17.6767 9 17.691 9C17.7053 9 17.7196 9 17.7339 9C17.7482 9 17.7626 9 17.7769 9C17.7912 9 17.8056 9 17.8199 9C17.8343 9 17.8487 9 17.863 9C17.8774 9 17.8918 9 17.9062 9C17.9206 9 17.935 9 17.9494 9C17.9638 9 17.9783 9 17.9927 9C18.0071 9 18.0216 9 18.036 9C18.0505 9 18.065 9 18.0794 9C18.0939 9 18.1084 9 18.1229 9C18.1374 9 18.1519 9 18.1664 9C18.181 9 18.1955 9 18.21 9C18.2246 9 18.2391 9 18.2537 9C18.2682 9 18.2828 9 18.2974 9C18.312 9 18.3266 9 18.3412 9C18.3558 9 18.3704 9 18.385 9C18.3996 9 18.4143 9 18.4289 9C18.4436 9 18.4582 9 18.4729 9C18.4876 9 18.5022 9 18.5169 9C18.5316 9 18.5463 9 18.561 9C18.5757 9 18.5905 9 18.6052 9C18.6199 9 18.6347 9 18.6494 9C18.6642 9 18.679 9 18.6937 9C18.7085 9 18.7233 9 18.7381 9C18.7529 9 18.7677 9 18.7825 9C18.7974 9 18.8122 9 18.827 9C18.8419 9 18.8567 9 18.8716 9C18.8865 9 18.9013 9 18.9162 9C18.9311 9 18.946 9 18.9609 9C18.9758 9 18.9908 9 19.0057 9C19.0206 9 19.0356 9 19.0505 9C19.0655 9 19.0805 9 19.0954 9C19.1104 9 19.1254 9 19.1404 9C19.1554 9 19.1704 9 19.1855 9C19.2005 9 19.2155 9 19.2306 9C19.2456 9 19.2607 9 19.2758 9C19.2908 9 19.3059 9 19.321 9C19.3361 9 19.3512 9 19.3664 9C19.3815 9 19.3966 9 19.4118 9C19.4269 9 19.4421 9 19.4572 9C19.4724 9 19.4876 9 19.5028 9C19.518 9 19.5332 9 19.5484 9C19.5636 9 19.5788 9 19.5941 9C19.6093 9 19.6246 9 19.6398 9C19.6551 9 19.6704 9 19.6857 9C19.701 9 19.7163 9 19.7316 9C19.7469 9 19.7622 9 19.7776 9C19.7929 9 19.8082 9 19.8236 9C19.839 9 19.8544 9 19.8697 9C19.8851 9 19.9005 9 19.9159 9C19.9314 9 19.9468 9 19.9622 9C19.9777 9 19.9931 9 20.0086 9C20.024 9 20.0395 9 20.055 9C20.0705 9 20.086 9 20.1015 9C20.117 9 20.1326 9 20.1481 9C20.1636 9 20.1792 9 20.1948 9C20.2103 9 20.2259 9 20.2415 9C20.2571 9 20.2727 9 20.2883 9C20.3039 9 20.3196 9 20.3352 9C20.3508 9 20.3665 9 20.3822 9C20.3978 9 20.4135 9 20.4292 9C20.4449 9 20.4606 9 20.4763 9C20.4921 9 20.5078 9 20.5235 9C20.5393 9 20.5551 9 20.5708 9C20.5866 9 20.6024 9 20.6182 9C20.634 9 20.6498 9 20.6656 9C20.6815 9 20.6973 9 20.7132 9C20.729 9 20.7449 9 20.7608 9C20.7766 9 20.7925 9 20.8084 9C20.8244 9 20.8403 9 20.8562 9C20.8721 9 20.8881 9 20.9041 9C20.92 9 20.936 9 20.952 9C20.968 9 20.984 9 21 9L21 7C20.984 7 20.968 7 20.952 7C20.936 7 20.92 7 20.9041 7C20.8881 7 20.8721 7 20.8562 7C20.8403 7 20.8244 7 20.8084 7C20.7925 7 20.7766 7 20.7608 7C20.7449 7 20.729 7 20.7132 7C20.6973 7 20.6815 7 20.6656 7C20.6498 7 20.634 7 20.6182 7C20.6024 7 20.5866 7 20.5708 7C20.5551 7 20.5393 7 20.5235 7C20.5078 7 20.4921 7 20.4763 7C20.4606 7 20.4449 7 20.4292 7C20.4135 7 20.3978 7 20.3822 7C20.3665 7 20.3508 7 20.3352 7C20.3196 7 20.3039 7 20.2883 7C20.2727 7 20.2571 7 20.2415 7C20.2259 7 20.2103 7 20.1948 7C20.1792 7 20.1636 7 20.1481 7C20.1326 7 20.117 7 20.1015 7C20.086 7 20.0705 7 20.055 7C20.0395 7 20.024 7 20.0086 7C19.9931 7 19.9777 7 19.9622 7C19.9468 7 19.9314 7 19.9159 7C19.9005 7 19.8851 7 19.8697 7C19.8544 7 19.839 7 19.8236 7C19.8082 7 19.7929 7 19.7776 7C19.7622 7 19.7469 7 19.7316 7C19.7163 7 19.701 7 19.6857 7C19.6704 7 19.6551 7 19.6398 7C19.6246 7 19.6093 7 19.5941 7C19.5788 7 19.5636 7 19.5484 7C19.5332 7 19.518 7 19.5028 7C19.4876 7 19.4724 7 19.4572 7C19.4421 7 19.4269 7 19.4118 7C19.3966 7 19.3815 7 19.3664 7C19.3512 7 19.3361 7 19.321 7C19.3059 7 19.2908 7 19.2758 7C19.2607 7 19.2456 7 19.2306 7C19.2155 7 19.2005 7 19.1855 7C19.1704 7 19.1554 7 19.1404 7C19.1254 7 19.1104 7 19.0954 7C19.0805 7 19.0655 7 19.0505 7C19.0356 7 19.0206 7 19.0057 7C18.9908 7 18.9758 7 18.9609 7C18.946 7 18.9311 7 18.9162 7C18.9013 7 18.8865 7 18.8716 7C18.8567 7 18.8419 7 18.827 7C18.8122 7 18.7974 7 18.7825 7C18.7677 7 18.7529 7 18.7381 7C18.7233 7 18.7085 7 18.6937 7C18.679 7 18.6642 7 18.6494 7C18.6347 7 18.6199 7 18.6052 7C18.5905 7 18.5757 7 18.561 7C18.5463 7 18.5316 7 18.5169 7C18.5022 7 18.4876 7 18.4729 7C18.4582 7 18.4436 7 18.4289 7C18.4143 7 18.3996 7 18.385 7C18.3704 7 18.3558 7 18.3412 7C18.3266 7 18.312 7 18.2974 7C18.2828 7 18.2682 7 18.2537 7C18.2391 7 18.2246 7 18.21 7C18.1955 7 18.181 7 18.1664 7C18.1519 7 18.1374 7 18.1229 7C18.1084 7 18.0939 7 18.0794 7C18.065 7 18.0505 7 18.036 7C18.0216 7 18.0071 7 17.9927 7C17.9783 7 17.9638 7 17.9494 7C17.935 7 17.9206 7 17.9062 7C17.8918 7 17.8774 7 17.863 7C17.8487 7 17.8343 7 17.8199 7C17.8056 7 17.7912 7 17.7769 7C17.7626 7 17.7482 7 17.7339 7C17.7196 7 17.7053 7 17.691 7C17.6767 7 17.6624 7 17.6481 7C17.6339 7 17.6196 7 17.6053 7C17.5911 7 17.5768 7 17.5626 7C17.5483 7 17.5341 7 17.5199 7C17.5057 7 17.4915 7 17.4773 7C17.4631 7 17.4489 7 17.4347 7C17.4205 7 17.4063 7 17.3922 7C17.378 7 17.3639 7 17.3497 7C17.3356 7 17.3214 7 17.3073 7C17.2932 7 17.2791 7 17.265 7C17.2509 7 17.2368 7 17.2227 7C17.2086 7 17.1945 7 17.1805 7C17.1664 7 17.1523 7 17.1383 7C17.1242 7 17.1102 7 17.0961 7C17.0821 7 17.0681 7 17.0541 7C17.0401 7 17.0261 7 17.0121 7C16.9981 7 16.9841 7 16.9701 7C16.9561 7 16.9422 7 16.9282 7C16.9142 7 16.9003 7 16.8863 7C16.8724 7 16.8585 7 16.8445 7C16.8306 7 16.8167 7 16.8028 7C16.7889 7 16.775 7 16.7611 7C16.7472 7 16.7333 7 16.7194 7C16.7056 7 16.6917 7 16.6778 7C16.664 7 16.6501 7 16.6363 7C16.6225 7 16.6086 7 16.5948 7C16.581 7 16.5672 7 16.5534 7C16.5396 7 16.5258 7 16.512 7C16.4982 7 16.4844 7 16.4706 7C16.4569 7 16.4431 7 16.4293 7C16.4156 7 16.4018 7 16.3881 7C16.3744 7 16.3606 7 16.3469 7C16.3332 7 16.3195 7 16.3058 7C16.2921 7 16.2784 7 16.2647 7C16.251 7 16.2373 7 16.2236 7C16.2099 7 16.1963 7 16.1826 7C16.169 7 16.1553 7 16.1417 7C16.128 7 16.1144 7 16.1008 7C16.0871 7 16.0735 7 16.0599 7C16.0463 7 16.0327 7 16.0191 7C16.0055 7 15.9919 7 15.9783 7C15.9647 7 15.9512 7 15.9376 7C15.924 7 15.9105 7 15.8969 7C15.8834 7 15.8698 7 15.8563 7C15.8427 7 15.8292 7 15.8157 7C15.8022 7 15.7887 7 15.7751 7C15.7616 7 15.7481 7 15.7347 7C15.7212 7 15.7077 7 15.6942 7C15.6807 7 15.6672 7 15.6538 7C15.6403 7 15.6269 7 15.6134 7C15.6 7 15.5865 7 15.5731 7C15.5597 7 15.5462 7 15.5328 7C15.5194 7 15.506 7 15.4926 7C15.4792 7 15.4658 7 15.4524 7C15.439 7 15.4256 7 15.4122 7C15.3988 7 15.3855 7 15.3721 7C15.3587 7 15.3454 7 15.332 7C15.3187 7 15.3053 7 15.292 7C15.2787 7 15.2653 7 15.252 7C15.2387 7 15.2254 7 15.212 7C15.1987 7 15.1854 7 15.1721 7C15.1588 7 15.1455 7 15.1323 7C15.119 7 15.1057 7 15.0924 7C15.0791 7 15.0659 7 15.0526 7C15.0394 7 15.0261 7 15.0129 7C14.9996 7 14.9864 7 14.9731 7C14.9599 7 14.9467 7 14.9335 7C14.9202 7 14.907 7 14.8938 7C14.8806 7 14.8674 7 14.8542 7C14.841 7 14.8278 7 14.8146 7C14.8014 7 14.7883 7 14.7751 7C14.7619 7 14.7488 7 14.7356 7C14.7224 7 14.7093 7 14.6961 7C14.683 7 14.6698 7 14.6567 7C14.6436 7 14.6304 7 14.6173 7C14.6042 7 14.5911 7 14.578 7C14.5648 7 14.5517 7 14.5386 7C14.5255 7 14.5124 7 14.4993 7C14.4863 7 14.4732 7 14.4601 7C14.447 7 14.4339 7 14.4209 7C14.4078 7 14.3947 7 14.3817 7C14.3686 7 14.3556 7 14.3425 7C14.3295 7 14.3164 7 14.3034 7C14.2904 7 14.2773 7 14.2643 7C14.2513 7 14.2383 7 14.2252 7C14.2122 7 14.1992 7 14.1862 7C14.1732 7 14.1602 7 14.1472 7C14.1342 7 14.1212 7 14.1083 7C14.0953 7 14.0823 7 14.0693 7C14.0563 7 14.0434 7 14.0304 7C14.0174 7 14.0045 7 13.9915 7C13.9786 7 13.9656 7 13.9527 7C13.9397 7 13.9268 7 13.9139 7C13.9009 7 13.888 7 13.8751 7C13.8622 7 13.8492 7 13.8363 7C13.8234 7 13.8105 7 13.7976 7C13.7847 7 13.7718 7 13.7589 7C13.746 7 13.7331 7 13.7202 7C13.7073 7 13.6945 7 13.6816 7C13.6687 7 13.6558 7 13.643 7C13.6301 7 13.6172 7 13.6044 7C13.5915 7 13.5786 7 13.5658 7C13.5529 7 13.5401 7 13.5273 7C13.5144 7 13.5016 7 13.4887 7C13.4759 7 13.4631 7 13.4502 7C13.4374 7 13.4246 7 13.4118 7C13.399 7 13.3862 7 13.3733 7C13.3605 7 13.3477 7 13.3349 7C13.3221 7 13.3093 7 13.2965 7C13.2837 7 13.271 7 13.2582 7C13.2454 7 13.2326 7 13.2198 7C13.207 7 13.1943 7 13.1815 7C13.1687 7 13.156 7 13.1432 7C13.1304 7 13.1177 7 13.1049 7C13.0922 7 13.0794 7 13.0667 7C13.0539 7 13.0412 7 13.0284 7C13.0157 7 13.003 7 12.9902 7C12.9775 7 12.9648 7 12.9521 7C12.9393 7 12.9266 7 12.9139 7C12.9012 7 12.8885 7 12.8757 7C12.863 7 12.8503 7 12.8376 7C12.8249 7 12.8122 7 12.7995 7C12.7868 7 12.7741 7 12.7614 7C12.7487 7 12.736 7 12.7234 7C12.7107 7 12.698 7 12.6853 7C12.6726 7 12.6599 7 12.6473 7C12.6346 7 12.6219 7 12.6093 7C12.5966 7 12.5839 7 12.5713 7C12.5586 7 12.546 7 12.5333 7C12.5206 7 12.508 7 12.4953 7C12.4827 7 12.47 7 12.4574 7C12.4448 7 12.4321 7 12.4195 7C12.4068 7 12.3942 7 12.3816 7C12.3689 7 12.3563 7 12.3437 7C12.331 7 12.3184 7 12.3058 7C12.2932 7 12.2806 7 12.2679 7C12.2553 7 12.2427 7 12.2301 7C12.2175 7 12.2049 7 12.1923 7C12.1797 7 12.167 7 12.1544 7C12.1418 7 12.1292 7 12.1166 7C12.104 7 12.0914 7 12.0789 7C12.0663 7 12.0537 7 12.0411 7C12.0285 7 12.0159 7 12.0033 7C11.9907 7 11.9782 7 11.9656 7C11.953 7 11.9404 7 11.9278 7C11.9153 7 11.9027 7 11.8901 7C11.8775 7 11.865 7 11.8524 7C11.8398 7 11.8273 7 11.8147 7C11.8021 7 11.7896 7 11.777 7C11.7644 7 11.7519 7 11.7393 7C11.7268 7 11.7142 7 11.7017 7C11.6891 7 11.6766 7 11.664 7C11.6515 7 11.6389 7 11.6264 7C11.6138 7 11.6013 7 11.5887 7C11.5762 7 11.5636 7 11.5511 7C11.5386 7 11.526 7 11.5135 7C11.5009 7 11.4884 7 11.4759 7C11.4633 7 11.4508 7 11.4383 7C11.4257 7 11.4132 7 11.4007 7C11.3881 7 11.3756 7 11.3631 7C11.3506 7 11.338 7 11.3255 7C11.313 7 11.3005 7 11.2879 7C11.2754 7 11.2629 7 11.2504 7C11.2379 7 11.2253 7 11.2128 7C11.2003 7 11.1878 7 11.1753 7C11.1627 7 11.1502 7 11.1377 7C11.1252 7 11.1127 7 11.1002 7C11.0877 7 11.0751 7 11.0626 7C11.0501 7 11.0376 7 11.0251 7C11.0126 7 11.0001 7 10.9876 7C10.9751 7 10.9626 7 10.9501 7C10.9376 7 10.925 7 10.9125 7C10.9 7 10.8875 7 10.875 7C10.8625 7 10.85 7 10.8375 7C10.825 7 10.8125 7 10.8 7C10.7875 7 10.775 7 10.7625 7C10.75 7 10.7375 7 10.725 7C10.7125 7 10.7 7 10.6875 7C10.675 7 10.6625 7 10.65 7C10.6375 7 10.625 7 10.6125 7C10.6 7 10.5875 7 10.575 7C10.5625 7 10.55 7 10.5375 7C10.525 7 10.5125 7 10.5 7C10.4875 7 10.475 7 10.4625 7C10.45 7 10.4375 7 10.425 7C10.4125 7 10.4 7 10.3875 7C10.375 7 10.3625 7 10.35 7C10.3375 7 10.325 7 10.3125 7C10.3 7 10.2875 7 10.275 7C10.2625 7 10.25 7 10.2375 7C10.225 7 10.2125 7 10.2 7C10.1875 7 10.175 7 10.1625 7C10.15 7 10.1375 7 10.125 7C10.1125 7 10.1 7 10.0875 7C10.075 7 10.0624 7 10.0499 7C10.0374 7 10.0249 7 10.0124 7C9.99991 7 9.9874 7 9.97489 7C9.96238 7 9.94987 7 9.93736 7C9.92485 7 9.91234 7 9.89983 7C9.88731 7 9.8748 7 9.86229 7C9.84977 7 9.83726 7 9.82474 7C9.81222 7 9.79971 7 9.78719 7C9.77467 7 9.76215 7 9.74963 7C9.73711 7 9.72459 7 9.71206 7C9.69954 7 9.68702 7 9.67449 7C9.66197 7 9.64944 7 9.63692 7C9.62439 7 9.61186 7 9.59933 7C9.5868 7 9.57427 7 9.56174 7C9.5492 7 9.53667 7 9.52413 7C9.5116 7 9.49906 7 9.48652 7C9.47398 7 9.46145 7 9.4489 7C9.43636 7 9.42382 7 9.41128 7C9.39873 7 9.38619 7 9.37364 7C9.36109 7 9.34854 7 9.33599 7C9.32344 7 9.31089 7 9.29834 7C9.28578 7 9.27323 7 9.26067 7C9.24811 7 9.23555 7 9.22299 7C9.21043 7 9.19787 7 9.1853 7C9.17274 7 9.16017 7 9.1476 7C9.13503 7 9.12246 7 9.10989 7C9.09732 7 9.08474 7 9.07217 7C9.05959 7 9.04701 7 9.03443 7C9.02185 7 9.00927 7 8.99668 7C8.9841 7 8.97151 7 8.95892 7C8.94633 7 8.93374 7 8.92115 7C8.90855 7 8.89596 7 8.88336 7C8.87076 7 8.85816 7 8.84556 7C8.83295 7 8.82035 7 8.80774 7C8.79513 7 8.78252 7 8.76991 7C8.7573 7 8.74468 7 8.73207 7C8.71945 7 8.70683 7 8.6942 7C8.68158 7 8.66896 7 8.65633 7C8.6437 7 8.63107 7 8.61844 7C8.6058 7 8.59317 7 8.58053 7C8.56789 7 8.55525 7 8.5426 7C8.52996 7 8.51731 7 8.50466 7C8.49201 7 8.47936 7 8.46671 7C8.45405 7 8.44139 7 8.42873 7C8.41607 7 8.4034 7 8.39074 7C8.37807 7 8.3654 7 8.35273 7C8.34005 7 8.32738 7 8.3147 7C8.30202 7 8.28933 7 8.27665 7C8.26396 7 8.25127 7 8.23858 7C8.22589 7 8.21319 7 8.20049 7C8.1878 7 8.17509 7 8.16239 7C8.14968 7 8.13697 7 8.12426 7C8.11155 7 8.09883 7 8.08611 7C8.0734 7 8.06067 7 8.04795 7C8.03522 7 8.02249 7 8.00976 7C7.99703 7 7.98429 7 7.97155 7C7.95881 7 7.94607 7 7.93332 7C7.92057 7 7.90782 7 7.89507 7C7.88231 7 7.86955 7 7.85679 7C7.84403 7 7.83126 7 7.81849 7C7.80572 7 7.79295 7 7.78017 7C7.7674 7 7.75462 7 7.74183 7C7.72905 7 7.71626 7 7.70346 7C7.69067 7 7.67787 7 7.66507 7C7.65227 7 7.63947 7 7.62666 7C7.61385 7 7.60103 7 7.58822 7C7.5754 7 7.56258 7 7.54975 7C7.53693 7 7.5241 7 7.51126 7C7.49843 7 7.48559 7 7.47275 7C7.45991 7 7.44706 7 7.43421 7C7.42136 7 7.4085 7 7.39564 7C7.38278 7 7.36992 7 7.35705 7C7.34418 7 7.3313 7 7.31843 7C7.30555 7 7.29267 7 7.27978 7C7.26689 7 7.254 7 7.24111 7C7.22821 7 7.21531 7 7.2024 7C7.1895 7 7.17659 7 7.16367 7C7.15076 7 7.13784 7 7.12491 7C7.11199 7 7.09906 7 7.08613 7C7.07319 7 7.06025 7 7.04731 7C7.03437 7 7.02142 7 7.00847 7C6.99551 7 6.98255 7 6.96959 7C6.95663 7 6.94366 7 6.93069 7C6.91771 7 6.90473 7 6.89175 7C6.87877 7 6.86578 7 6.85278 7C6.83979 7 6.82679 7 6.81379 7C6.80078 7 6.78777 7 6.77476 7C6.76174 7 6.74872 7 6.7357 7C6.72267 7 6.70964 7 6.69661 7C6.68357 7 6.67053 7 6.65748 7C6.64444 7 6.63138 7 6.61833 7C6.60527 7 6.59221 7 6.57914 7C6.56607 7 6.55299 7 6.53991 7C6.52684 7 6.51375 7 6.50066 7C6.48757 7 6.47447 7 6.46137 7C6.44827 7 6.43516 7 6.42205 7C6.40893 7 6.39581 7 6.38269 7C6.36956 7 6.35643 7 6.34329 7C6.33016 7 6.31701 7 6.30387 7C6.29072 7 6.27756 7 6.2644 7C6.25124 7 6.23807 7 6.2249 7C6.21173 7 6.19855 7 6.18537 7C6.17218 7 6.15899 7 6.14579 7C6.1326 7 6.11939 7 6.10619 7C6.09298 7 6.07976 7 6.06654 7C6.05332 7 6.04009 7 6.02686 7C6.01362 7 6.00038 7 5.98714 7C5.97389 7 5.96064 7 5.94738 7C5.93412 7 5.92085 7 5.90758 7C5.89431 7 5.88103 7 5.86774 7C5.85446 7 5.84117 7 5.82787 7C5.81457 7 5.80127 7 5.78796 7C5.77464 7 5.76133 7 5.748 7C5.73468 7 5.72135 7 5.70801 7C5.69467 7 5.68133 7 5.66797 7C5.65462 7 5.64126 7 5.6279 7C5.61453 7 5.60116 7 5.58778 7C5.57441 7 5.56102 7 5.54763 7C5.53424 7 5.52084 7 5.50743 7C5.49402 7 5.48061 7 5.46719 7C5.45377 7 5.44034 7 5.42691 7C5.41347 7 5.40003 7 5.38658 7C5.37313 7 5.35968 7 5.34621 7C5.33275 7 5.31928 7 5.3058 7C5.29233 7 5.27884 7 5.26535 7C5.25186 7 5.23836 7 5.22485 7C5.21134 7 5.19783 7 5.18431 7C5.17079 7 5.15726 7 5.14372 7C5.13019 7 5.11664 7 5.10309 7C5.08954 7 5.07598 7 5.06241 7C5.04885 7 5.03527 7 5.02169 7C5.00811 7 4.99452 7 4.98092 7C4.96733 7 4.95372 7 4.94011 7C4.9265 7 4.91288 7 4.89925 7C4.88562 7 4.87199 7 4.85834 7C4.8447 7 4.83105 7 4.81739 7C4.80373 7 4.79006 7 4.77639 7C4.76271 7 4.74903 7 4.73534 7C4.72165 7 4.70795 7 4.69424 7C4.68054 7 4.66682 7 4.6531 7C4.63937 7 4.62564 7 4.6119 7C4.59816 7 4.58442 7 4.57066 7C4.5569 7 4.54314 7 4.52937 7C4.5156 7 4.50182 7 4.48803 7C4.47424 7 4.46044 7 4.44663 7C4.43283 7 4.41902 7 4.40519 7C4.39137 7 4.37754 7 4.3637 7C4.34986 7 4.33601 7 4.32216 7C4.3083 7 4.29444 7 4.28056 7C4.26669 7 4.25281 7 4.23892 7C4.22503 7 4.21113 7 4.19722 7C4.18331 7 4.16939 7 4.15547 7C4.14154 7 4.12761 7 4.11366 7C4.09972 7 4.08577 7 4.07181 7C4.05785 7 4.04388 7 4.0299 7C4.01592 7 4.00193 7 3.98794 7C3.97394 7 3.95994 7 3.94592 7C3.93191 7 3.91788 7 3.90385 7C3.88982 7 3.87578 7 3.86173 7C3.84768 7 3.83362 7 3.81955 7C3.80548 7 3.7914 7 3.77731 7C3.76323 7 3.74913 7 3.73502 7C3.72092 7 3.7068 7 3.69268 7C3.67855 7 3.66442 7 3.65028 7C3.63613 7 3.62198 7 3.60782 7C3.59366 7 3.57949 7 3.5653 7C3.55112 7 3.53693 7 3.52273 7C3.50853 7 3.49432 7 3.4801 7C3.46588 7 3.45166 7 3.43742 7C3.42318 7 3.40893 7 3.39467 7C3.38041 7 3.36615 7 3.35187 7C3.33759 7 3.3233 7 3.30901 7C3.29471 7 3.2804 7 3.26609 7C3.25177 7 3.23744 7 3.22311 7C3.20877 7 3.19442 7 3.18007 7C3.16571 7 3.15134 7 3.13697 7C3.12259 7 3.10821 7 3.09381 7C3.07941 7 3.06501 7 3.05059 7C3.03617 7 3.02174 7 3.00731 7C2.99287 7 2.97842 7 2.96397 7C2.94951 7 2.93504 7 2.92056 7C2.90608 7 2.89159 7 2.8771 7C2.8626 7 2.84809 7 2.83357 7C2.81905 7 2.80452 7 2.78998 7C2.77544 7 2.76089 7 2.74632 7C2.73176 7 2.71719 7 2.70261 7C2.68803 7 2.67343 7 2.65883 7C2.64422 7 2.62961 7 2.61499 7C2.60036 7 2.58572 7 2.57108 7C2.55643 7 2.54177 7 2.52711 7C2.51244 7 2.49776 7 2.48307 7C2.46838 7 2.45368 7 2.43897 7C2.42426 7 2.40953 7 2.3948 7C2.38007 7 2.36532 7 2.35057 7C2.33581 7 2.32105 7 2.30627 7C2.29149 7 2.2767 7 2.2619 7C2.2471 7 2.23229 7 2.21747 7C2.20265 7 2.18782 7 2.17297 7C2.15813 7 2.14327 7 2.1284 7C2.11354 7 2.09866 7 2.08377 7C2.06888 7 2.05398 7 2.03907 7C2.02416 7 2.00923 7 1.9943 7C1.97936 7 1.96442 7 1.94946 7C1.9345 7 1.91953 7 1.90455 7C1.88957 7 1.87458 7 1.85957 7C1.84457 7 1.82956 7 1.81453 7C1.7995 7 1.78446 7 1.76941 7C1.75436 7 1.7393 7 1.72422 7C1.70915 7 1.69406 7 1.67897 7C1.66387 7 1.64876 7 1.63364 7C1.61852 7 1.60338 7 1.58824 7C1.57309 7 1.55794 7 1.54277 7C1.5276 7 1.51242 7 1.49723 7C1.48203 7 1.46683 7 1.45161 7C1.43639 7 1.42116 7 1.40592 7C1.39068 7 1.37543 7 1.36016 7C1.3449 7 1.32962 7 1.31433 7C1.29904 7 1.28374 7 1.26842 7C1.25311 7 1.23778 7 1.22244 7C1.2071 7 1.19175 7 1.17639 7C1.16102 7 1.14565 7 1.13026 7C1.11487 7 1.09947 7 1.08406 7C1.06864 7 1.05322 7 1.03778 7C1.02234 7 1.00689 7 0.991422 7C0.975958 7 0.960481 7 0.944992 7C0.929503 7 0.914001 7 0.898486 7C0.882972 7 0.867444 7 0.851904 7C0.836364 7 0.820811 7 0.805245 7C0.789679 7 0.774101 7 0.758509 7C0.742917 7 0.727313 7 0.711696 7C0.696078 7 0.680448 7 0.664805 7C0.649162 7 0.633505 7 0.617836 7C0.602167 7 0.586484 7 0.570789 7C0.555093 7 0.539385 7 0.523663 7C0.507941 7 0.492206 7 0.476458 7C0.46071 7 0.444949 7 0.429174 7C0.4134 7 0.397612 7 0.381811 7C0.36601 7 0.350195 7 0.334368 7C0.31854 7 0.302699 7 0.286844 7C0.270989 7 0.255121 7 0.23924 7C0.223358 7 0.207463 7 0.191555 7C0.175646 7 0.159724 7 0.143789 7C0.127853 7 0.111904 7 0.0959412 7C0.0799783 7 0.0640019 7 0.0480117 7C0.0320215 7 0.0160177 7 8.74228e-08 7L-8.74228e-08 9Z" fill="#C40201"/>
</svg>
