<svg width="22" height="16" viewBox="0 0 22 16" fill="none" xmlns="http://www.w3.org/2000/svg">
<path d="M0.292893 7.29289C-0.0976311 7.68342 -0.0976311 8.31658 0.292893 8.70711L6.65685 15.0711C7.04738 15.4616 7.68054 15.4616 8.07107 15.0711C8.46159 14.6805 8.46159 14.0474 8.07107 13.6569L2.41421 8L8.07107 2.34315C8.46159 1.95262 8.46159 1.31946 8.07107 0.928933C7.68054 0.538408 7.04738 0.538408 6.65685 0.928933L0.292893 7.29289ZM1 9C1.01602 9 1.03202 9 1.04801 9C1.064 9 1.07998 9 1.09594 9C1.1119 9 1.12785 9 1.14379 9C1.15972 9 1.17565 9 1.19155 9C1.20746 9 1.22336 9 1.23924 9C1.25512 9 1.27099 9 1.28684 9C1.3027 9 1.31854 9 1.33437 9C1.3502 9 1.36601 9 1.38181 9C1.39761 9 1.4134 9 1.42917 9C1.44495 9 1.46071 9 1.47646 9C1.49221 9 1.50794 9 1.52366 9C1.53938 9 1.55509 9 1.57079 9C1.58648 9 1.60217 9 1.61784 9C1.63351 9 1.64916 9 1.6648 9C1.68045 9 1.69608 9 1.7117 9C1.72731 9 1.74292 9 1.75851 9C1.7741 9 1.78968 9 1.80524 9C1.82081 9 1.83636 9 1.8519 9C1.86744 9 1.88297 9 1.89849 9C1.914 9 1.9295 9 1.94499 9C1.96048 9 1.97596 9 1.99142 9C2.00689 9 2.02234 9 2.03778 9C2.05321 9 2.06864 9 2.08405 9C2.09947 9 2.11487 9 2.13026 9C2.14565 9 2.16102 9 2.17639 9C2.19175 9 2.2071 9 2.22244 9C2.23778 9 2.25311 9 2.26842 9C2.28374 9 2.29904 9 2.31433 9C2.32962 9 2.3449 9 2.36016 9C2.37543 9 2.39068 9 2.40592 9C2.42116 9 2.43639 9 2.45161 9C2.46683 9 2.48203 9 2.49723 9C2.51242 9 2.5276 9 2.54277 9C2.55794 9 2.57309 9 2.58824 9C2.60338 9 2.61852 9 2.63364 9C2.64876 9 2.66387 9 2.67897 9C2.69406 9 2.70915 9 2.72422 9C2.7393 9 2.75436 9 2.76941 9C2.78446 9 2.7995 9 2.81453 9C2.82955 9 2.84457 9 2.85957 9C2.87458 9 2.88957 9 2.90455 9C2.91953 9 2.9345 9 2.94946 9C2.96442 9 2.97936 9 2.9943 9C3.00923 9 3.02416 9 3.03907 9C3.05398 9 3.06888 9 3.08377 9C3.09866 9 3.11354 9 3.1284 9C3.14327 9 3.15813 9 3.17297 9C3.18782 9 3.20265 9 3.21747 9C3.23229 9 3.2471 9 3.2619 9C3.2767 9 3.29149 9 3.30627 9C3.32104 9 3.33581 9 3.35057 9C3.36532 9 3.38007 9 3.3948 9C3.40953 9 3.42426 9 3.43897 9C3.45368 9 3.46838 9 3.48307 9C3.49776 9 3.51244 9 3.52711 9C3.54177 9 3.55643 9 3.57108 9C3.58572 9 3.60036 9 3.61498 9C3.62961 9 3.64422 9 3.65883 9C3.67343 9 3.68803 9 3.70261 9C3.71719 9 3.73176 9 3.74632 9C3.76089 9 3.77544 9 3.78998 9C3.80452 9 3.81905 9 3.83357 9C3.84809 9 3.8626 9 3.8771 9C3.89159 9 3.90608 9 3.92056 9C3.93504 9 3.94951 9 3.96396 9C3.97842 9 3.99287 9 4.00731 9C4.02174 9 4.03617 9 4.05059 9C4.065 9 4.07941 9 4.09381 9C4.1082 9 4.12259 9 4.13697 9C4.15134 9 4.16571 9 4.18007 9C4.19442 9 4.20877 9 4.22311 9C4.23744 9 4.25177 9 4.26609 9C4.2804 9 4.29471 9 4.30901 9C4.3233 9 4.33759 9 4.35187 9C4.36615 9 4.38041 9 4.39467 9C4.40893 9 4.42318 9 4.43742 9C4.45166 9 4.46588 9 4.4801 9C4.49432 9 4.50853 9 4.52273 9C4.53693 9 4.55112 9 4.5653 9C4.57949 9 4.59366 9 4.60782 9C4.62198 9 4.63613 9 4.65028 9C4.66442 9 4.67855 9 4.69268 9C4.7068 9 4.72092 9 4.73502 9C4.74913 9 4.76323 9 4.77731 9C4.7914 9 4.80548 9 4.81955 9C4.83362 9 4.84768 9 4.86173 9C4.87578 9 4.88982 9 4.90385 9C4.91788 9 4.93191 9 4.94592 9C4.95994 9 4.97394 9 4.98794 9C5.00193 9 5.01592 9 5.0299 9C5.04388 9 5.05785 9 5.07181 9C5.08577 9 5.09972 9 5.11366 9C5.12761 9 5.14154 9 5.15547 9C5.16939 9 5.18331 9 5.19722 9C5.21113 9 5.22503 9 5.23892 9C5.25281 9 5.26669 9 5.28056 9C5.29444 9 5.3083 9 5.32216 9C5.33601 9 5.34986 9 5.3637 9C5.37754 9 5.39137 9 5.40519 9C5.41902 9 5.43283 9 5.44663 9C5.46044 9 5.47424 9 5.48803 9C5.50182 9 5.5156 9 5.52937 9C5.54314 9 5.5569 9 5.57066 9C5.58442 9 5.59816 9 5.6119 9C5.62564 9 5.63937 9 5.6531 9C5.66682 9 5.68054 9 5.69424 9C5.70795 9 5.72165 9 5.73534 9C5.74903 9 5.76271 9 5.77639 9C5.79006 9 5.80373 9 5.81739 9C5.83105 9 5.8447 9 5.85834 9C5.87199 9 5.88562 9 5.89925 9C5.91288 9 5.9265 9 5.94011 9C5.95372 9 5.96733 9 5.98092 9C5.99452 9 6.00811 9 6.02169 9C6.03527 9 6.04885 9 6.06241 9C6.07598 9 6.08954 9 6.10309 9C6.11664 9 6.13019 9 6.14372 9C6.15726 9 6.17079 9 6.18431 9C6.19783 9 6.21134 9 6.22485 9C6.23836 9 6.25186 9 6.26535 9C6.27884 9 6.29233 9 6.3058 9C6.31928 9 6.33275 9 6.34621 9C6.35968 9 6.37313 9 6.38658 9C6.40003 9 6.41347 9 6.42691 9C6.44034 9 6.45377 9 6.46719 9C6.48061 9 6.49402 9 6.50743 9C6.52084 9 6.53423 9 6.54763 9C6.56102 9 6.57441 9 6.58778 9C6.60116 9 6.61453 9 6.6279 9C6.64126 9 6.65462 9 6.66797 9C6.68133 9 6.69467 9 6.70801 9C6.72135 9 6.73468 9 6.748 9C6.76133 9 6.77464 9 6.78796 9C6.80127 9 6.81457 9 6.82787 9C6.84117 9 6.85446 9 6.86774 9C6.88103 9 6.89431 9 6.90758 9C6.92085 9 6.93412 9 6.94738 9C6.96064 9 6.97389 9 6.98714 9C7.00038 9 7.01362 9 7.02686 9C7.04009 9 7.05332 9 7.06654 9C7.07976 9 7.09298 9 7.10619 9C7.11939 9 7.1326 9 7.14579 9C7.15899 9 7.17218 9 7.18537 9C7.19855 9 7.21173 9 7.2249 9C7.23807 9 7.25124 9 7.2644 9C7.27756 9 7.29072 9 7.30386 9C7.31701 9 7.33016 9 7.34329 9C7.35643 9 7.36956 9 7.38269 9C7.39581 9 7.40893 9 7.42205 9C7.43516 9 7.44827 9 7.46137 9C7.47447 9 7.48757 9 7.50066 9C7.51375 9 7.52683 9 7.53991 9C7.55299 9 7.56607 9 7.57914 9C7.59221 9 7.60527 9 7.61833 9C7.63138 9 7.64444 9 7.65748 9C7.67053 9 7.68357 9 7.69661 9C7.70964 9 7.72267 9 7.7357 9C7.74872 9 7.76174 9 7.77476 9C7.78777 9 7.80078 9 7.81379 9C7.82679 9 7.83979 9 7.85278 9C7.86578 9 7.87877 9 7.89175 9C7.90473 9 7.91771 9 7.93068 9C7.94366 9 7.95663 9 7.96959 9C7.98255 9 7.99551 9 8.00847 9C8.02142 9 8.03437 9 8.04731 9C8.06025 9 8.07319 9 8.08613 9C8.09906 9 8.11199 9 8.12491 9C8.13784 9 8.15076 9 8.16367 9C8.17659 9 8.1895 9 8.2024 9C8.21531 9 8.22821 9 8.2411 9C8.254 9 8.26689 9 8.27978 9C8.29267 9 8.30555 9 8.31843 9C8.3313 9 8.34418 9 8.35705 9C8.36992 9 8.38278 9 8.39564 9C8.4085 9 8.42136 9 8.43421 9C8.44706 9 8.45991 9 8.47275 9C8.48559 9 8.49843 9 8.51126 9C8.5241 9 8.53693 9 8.54975 9C8.56258 9 8.5754 9 8.58822 9C8.60103 9 8.61385 9 8.62666 9C8.63947 9 8.65227 9 8.66507 9C8.67787 9 8.69067 9 8.70346 9C8.71626 9 8.72904 9 8.74183 9C8.75462 9 8.7674 9 8.78017 9C8.79295 9 8.80572 9 8.81849 9C8.83126 9 8.84403 9 8.85679 9C8.86955 9 8.88231 9 8.89507 9C8.90782 9 8.92057 9 8.93332 9C8.94607 9 8.95881 9 8.97155 9C8.98429 9 8.99703 9 9.00976 9C9.02249 9 9.03522 9 9.04795 9C9.06067 9 9.0734 9 9.08611 9C9.09883 9 9.11155 9 9.12426 9C9.13697 9 9.14968 9 9.16239 9C9.17509 9 9.1878 9 9.20049 9C9.21319 9 9.22589 9 9.23858 9C9.25127 9 9.26396 9 9.27665 9C9.28933 9 9.30202 9 9.3147 9C9.32738 9 9.34005 9 9.35273 9C9.3654 9 9.37807 9 9.39074 9C9.4034 9 9.41607 9 9.42873 9C9.44139 9 9.45405 9 9.46671 9C9.47936 9 9.49201 9 9.50466 9C9.51731 9 9.52996 9 9.5426 9C9.55525 9 9.56789 9 9.58053 9C9.59317 9 9.6058 9 9.61844 9C9.63107 9 9.6437 9 9.65633 9C9.66896 9 9.68158 9 9.6942 9C9.70683 9 9.71945 9 9.73207 9C9.74468 9 9.7573 9 9.76991 9C9.78252 9 9.79513 9 9.80774 9C9.82035 9 9.83295 9 9.84556 9C9.85816 9 9.87076 9 9.88336 9C9.89596 9 9.90855 9 9.92115 9C9.93374 9 9.94633 9 9.95892 9C9.97151 9 9.9841 9 9.99668 9C10.0093 9 10.0218 9 10.0344 9C10.047 9 10.0596 9 10.0722 9C10.0847 9 10.0973 9 10.1099 9C10.1225 9 10.135 9 10.1476 9C10.1602 9 10.1727 9 10.1853 9C10.1979 9 10.2104 9 10.223 9C10.2356 9 10.2481 9 10.2607 9C10.2732 9 10.2858 9 10.2983 9C10.3109 9 10.3234 9 10.336 9C10.3485 9 10.3611 9 10.3736 9C10.3862 9 10.3987 9 10.4113 9C10.4238 9 10.4364 9 10.4489 9C10.4614 9 10.474 9 10.4865 9C10.4991 9 10.5116 9 10.5241 9C10.5367 9 10.5492 9 10.5617 9C10.5743 9 10.5868 9 10.5993 9C10.6119 9 10.6244 9 10.6369 9C10.6494 9 10.662 9 10.6745 9C10.687 9 10.6995 9 10.7121 9C10.7246 9 10.7371 9 10.7496 9C10.7621 9 10.7747 9 10.7872 9C10.7997 9 10.8122 9 10.8247 9C10.8373 9 10.8498 9 10.8623 9C10.8748 9 10.8873 9 10.8998 9C10.9123 9 10.9249 9 10.9374 9C10.9499 9 10.9624 9 10.9749 9C10.9874 9 10.9999 9 11.0124 9C11.0249 9 11.0374 9 11.0499 9C11.0624 9 11.075 9 11.0875 9C11.1 9 11.1125 9 11.125 9C11.1375 9 11.15 9 11.1625 9C11.175 9 11.1875 9 11.2 9C11.2125 9 11.225 9 11.2375 9C11.25 9 11.2625 9 11.275 9C11.2875 9 11.3 9 11.3125 9C11.325 9 11.3375 9 11.35 9C11.3625 9 11.375 9 11.3875 9C11.4 9 11.4125 9 11.425 9C11.4375 9 11.45 9 11.4625 9C11.475 9 11.4875 9 11.5 9C11.5125 9 11.525 9 11.5375 9C11.55 9 11.5625 9 11.575 9C11.5875 9 11.6 9 11.6125 9C11.625 9 11.6375 9 11.65 9C11.6625 9 11.675 9 11.6875 9C11.7 9 11.7125 9 11.725 9C11.7375 9 11.75 9 11.7625 9C11.775 9 11.7875 9 11.8 9C11.8125 9 11.825 9 11.8375 9C11.85 9 11.8625 9 11.875 9C11.8875 9 11.9 9 11.9125 9C11.925 9 11.9376 9 11.9501 9C11.9626 9 11.9751 9 11.9876 9C12.0001 9 12.0126 9 12.0251 9C12.0376 9 12.0501 9 12.0626 9C12.0751 9 12.0877 9 12.1002 9C12.1127 9 12.1252 9 12.1377 9C12.1502 9 12.1627 9 12.1753 9C12.1878 9 12.2003 9 12.2128 9C12.2253 9 12.2379 9 12.2504 9C12.2629 9 12.2754 9 12.2879 9C12.3005 9 12.313 9 12.3255 9C12.338 9 12.3506 9 12.3631 9C12.3756 9 12.3881 9 12.4007 9C12.4132 9 12.4257 9 12.4383 9C12.4508 9 12.4633 9 12.4759 9C12.4884 9 12.5009 9 12.5135 9C12.526 9 12.5386 9 12.5511 9C12.5636 9 12.5762 9 12.5887 9C12.6013 9 12.6138 9 12.6264 9C12.6389 9 12.6515 9 12.664 9C12.6766 9 12.6891 9 12.7017 9C12.7142 9 12.7268 9 12.7393 9C12.7519 9 12.7644 9 12.777 9C12.7896 9 12.8021 9 12.8147 9C12.8273 9 12.8398 9 12.8524 9C12.865 9 12.8775 9 12.8901 9C12.9027 9 12.9153 9 12.9278 9C12.9404 9 12.953 9 12.9656 9C12.9782 9 12.9907 9 13.0033 9C13.0159 9 13.0285 9 13.0411 9C13.0537 9 13.0663 9 13.0789 9C13.0914 9 13.104 9 13.1166 9C13.1292 9 13.1418 9 13.1544 9C13.167 9 13.1797 9 13.1923 9C13.2049 9 13.2175 9 13.2301 9C13.2427 9 13.2553 9 13.2679 9C13.2806 9 13.2932 9 13.3058 9C13.3184 9 13.331 9 13.3437 9C13.3563 9 13.3689 9 13.3816 9C13.3942 9 13.4068 9 13.4195 9C13.4321 9 13.4448 9 13.4574 9C13.47 9 13.4827 9 13.4953 9C13.508 9 13.5206 9 13.5333 9C13.5459 9 13.5586 9 13.5713 9C13.5839 9 13.5966 9 13.6093 9C13.6219 9 13.6346 9 13.6473 9C13.6599 9 13.6726 9 13.6853 9C13.698 9 13.7107 9 13.7234 9C13.736 9 13.7487 9 13.7614 9C13.7741 9 13.7868 9 13.7995 9C13.8122 9 13.8249 9 13.8376 9C13.8503 9 13.863 9 13.8757 9C13.8885 9 13.9012 9 13.9139 9C13.9266 9 13.9393 9 13.9521 9C13.9648 9 13.9775 9 13.9902 9C14.003 9 14.0157 9 14.0284 9C14.0412 9 14.0539 9 14.0667 9C14.0794 9 14.0922 9 14.1049 9C14.1177 9 14.1304 9 14.1432 9C14.156 9 14.1687 9 14.1815 9C14.1943 9 14.207 9 14.2198 9C14.2326 9 14.2454 9 14.2582 9C14.271 9 14.2837 9 14.2965 9C14.3093 9 14.3221 9 14.3349 9C14.3477 9 14.3605 9 14.3733 9C14.3862 9 14.399 9 14.4118 9C14.4246 9 14.4374 9 14.4502 9C14.4631 9 14.4759 9 14.4887 9C14.5016 9 14.5144 9 14.5273 9C14.5401 9 14.5529 9 14.5658 9C14.5786 9 14.5915 9 14.6044 9C14.6172 9 14.6301 9 14.643 9C14.6558 9 14.6687 9 14.6816 9C14.6945 9 14.7073 9 14.7202 9C14.7331 9 14.746 9 14.7589 9C14.7718 9 14.7847 9 14.7976 9C14.8105 9 14.8234 9 14.8363 9C14.8492 9 14.8622 9 14.8751 9C14.888 9 14.9009 9 14.9139 9C14.9268 9 14.9397 9 14.9527 9C14.9656 9 14.9786 9 14.9915 9C15.0045 9 15.0174 9 15.0304 9C15.0434 9 15.0563 9 15.0693 9C15.0823 9 15.0953 9 15.1083 9C15.1212 9 15.1342 9 15.1472 9C15.1602 9 15.1732 9 15.1862 9C15.1992 9 15.2122 9 15.2252 9C15.2383 9 15.2513 9 15.2643 9C15.2773 9 15.2904 9 15.3034 9C15.3164 9 15.3295 9 15.3425 9C15.3556 9 15.3686 9 15.3817 9C15.3947 9 15.4078 9 15.4209 9C15.4339 9 15.447 9 15.4601 9C15.4732 9 15.4862 9 15.4993 9C15.5124 9 15.5255 9 15.5386 9C15.5517 9 15.5648 9 15.578 9C15.5911 9 15.6042 9 15.6173 9C15.6304 9 15.6436 9 15.6567 9C15.6698 9 15.683 9 15.6961 9C15.7093 9 15.7224 9 15.7356 9C15.7488 9 15.7619 9 15.7751 9C15.7883 9 15.8014 9 15.8146 9C15.8278 9 15.841 9 15.8542 9C15.8674 9 15.8806 9 15.8938 9C15.907 9 15.9202 9 15.9335 9C15.9467 9 15.9599 9 15.9731 9C15.9864 9 15.9996 9 16.0129 9C16.0261 9 16.0394 9 16.0526 9C16.0659 9 16.0791 9 16.0924 9C16.1057 9 16.119 9 16.1323 9C16.1455 9 16.1588 9 16.1721 9C16.1854 9 16.1987 9 16.212 9C16.2254 9 16.2387 9 16.252 9C16.2653 9 16.2787 9 16.292 9C16.3053 9 16.3187 9 16.332 9C16.3454 9 16.3587 9 16.3721 9C16.3855 9 16.3988 9 16.4122 9C16.4256 9 16.439 9 16.4524 9C16.4658 9 16.4792 9 16.4926 9C16.506 9 16.5194 9 16.5328 9C16.5462 9 16.5597 9 16.5731 9C16.5865 9 16.6 9 16.6134 9C16.6269 9 16.6403 9 16.6538 9C16.6672 9 16.6807 9 16.6942 9C16.7077 9 16.7212 9 16.7347 9C16.7481 9 16.7616 9 16.7751 9C16.7887 9 16.8022 9 16.8157 9C16.8292 9 16.8427 9 16.8563 9C16.8698 9 16.8834 9 16.8969 9C16.9105 9 16.924 9 16.9376 9C16.9512 9 16.9647 9 16.9783 9C16.9919 9 17.0055 9 17.0191 9C17.0327 9 17.0463 9 17.0599 9C17.0735 9 17.0871 9 17.1007 9C17.1144 9 17.128 9 17.1417 9C17.1553 9 17.169 9 17.1826 9C17.1963 9 17.2099 9 17.2236 9C17.2373 9 17.251 9 17.2647 9C17.2784 9 17.2921 9 17.3058 9C17.3195 9 17.3332 9 17.3469 9C17.3606 9 17.3744 9 17.3881 9C17.4018 9 17.4156 9 17.4293 9C17.4431 9 17.4569 9 17.4706 9C17.4844 9 17.4982 9 17.512 9C17.5258 9 17.5396 9 17.5534 9C17.5672 9 17.581 9 17.5948 9C17.6086 9 17.6225 9 17.6363 9C17.6501 9 17.664 9 17.6778 9C17.6917 9 17.7056 9 17.7194 9C17.7333 9 17.7472 9 17.7611 9C17.775 9 17.7889 9 17.8028 9C17.8167 9 17.8306 9 17.8445 9C17.8585 9 17.8724 9 17.8863 9C17.9003 9 17.9142 9 17.9282 9C17.9422 9 17.9561 9 17.9701 9C17.9841 9 17.9981 9 18.0121 9C18.0261 9 18.0401 9 18.0541 9C18.0681 9 18.0821 9 18.0961 9C18.1102 9 18.1242 9 18.1383 9C18.1523 9 18.1664 9 18.1805 9C18.1945 9 18.2086 9 18.2227 9C18.2368 9 18.2509 9 18.265 9C18.2791 9 18.2932 9 18.3073 9C18.3214 9 18.3356 9 18.3497 9C18.3639 9 18.378 9 18.3922 9C18.4063 9 18.4205 9 18.4347 9C18.4489 9 18.4631 9 18.4773 9C18.4915 9 18.5057 9 18.5199 9C18.5341 9 18.5483 9 18.5626 9C18.5768 9 18.5911 9 18.6053 9C18.6196 9 18.6339 9 18.6481 9C18.6624 9 18.6767 9 18.691 9C18.7053 9 18.7196 9 18.7339 9C18.7482 9 18.7626 9 18.7769 9C18.7912 9 18.8056 9 18.8199 9C18.8343 9 18.8487 9 18.863 9C18.8774 9 18.8918 9 18.9062 9C18.9206 9 18.935 9 18.9494 9C18.9638 9 18.9783 9 18.9927 9C19.0071 9 19.0216 9 19.036 9C19.0505 9 19.065 9 19.0794 9C19.0939 9 19.1084 9 19.1229 9C19.1374 9 19.1519 9 19.1664 9C19.181 9 19.1955 9 19.21 9C19.2246 9 19.2391 9 19.2537 9C19.2682 9 19.2828 9 19.2974 9C19.312 9 19.3266 9 19.3412 9C19.3558 9 19.3704 9 19.385 9C19.3996 9 19.4143 9 19.4289 9C19.4436 9 19.4582 9 19.4729 9C19.4876 9 19.5022 9 19.5169 9C19.5316 9 19.5463 9 19.561 9C19.5757 9 19.5905 9 19.6052 9C19.6199 9 19.6347 9 19.6494 9C19.6642 9 19.679 9 19.6937 9C19.7085 9 19.7233 9 19.7381 9C19.7529 9 19.7677 9 19.7825 9C19.7974 9 19.8122 9 19.827 9C19.8419 9 19.8567 9 19.8716 9C19.8865 9 19.9013 9 19.9162 9C19.9311 9 19.946 9 19.9609 9C19.9758 9 19.9908 9 20.0057 9C20.0206 9 20.0356 9 20.0505 9C20.0655 9 20.0805 9 20.0954 9C20.1104 9 20.1254 9 20.1404 9C20.1554 9 20.1704 9 20.1855 9C20.2005 9 20.2155 9 20.2306 9C20.2456 9 20.2607 9 20.2758 9C20.2908 9 20.3059 9 20.321 9C20.3361 9 20.3512 9 20.3664 9C20.3815 9 20.3966 9 20.4118 9C20.4269 9 20.4421 9 20.4572 9C20.4724 9 20.4876 9 20.5028 9C20.518 9 20.5332 9 20.5484 9C20.5636 9 20.5788 9 20.5941 9C20.6093 9 20.6246 9 20.6398 9C20.6551 9 20.6704 9 20.6857 9C20.701 9 20.7163 9 20.7316 9C20.7469 9 20.7622 9 20.7776 9C20.7929 9 20.8082 9 20.8236 9C20.839 9 20.8544 9 20.8697 9C20.8851 9 20.9005 9 20.9159 9C20.9314 9 20.9468 9 20.9622 9C20.9777 9 20.9931 9 21.0086 9C21.024 9 21.0395 9 21.055 9C21.0705 9 21.086 9 21.1015 9C21.117 9 21.1326 9 21.1481 9C21.1636 9 21.1792 9 21.1948 9C21.2103 9 21.2259 9 21.2415 9C21.2571 9 21.2727 9 21.2883 9C21.3039 9 21.3196 9 21.3352 9C21.3508 9 21.3665 9 21.3822 9C21.3978 9 21.4135 9 21.4292 9C21.4449 9 21.4606 9 21.4763 9C21.4921 9 21.5078 9 21.5235 9C21.5393 9 21.5551 9 21.5708 9C21.5866 9 21.6024 9 21.6182 9C21.634 9 21.6498 9 21.6656 9C21.6815 9 21.6973 9 21.7132 9C21.729 9 21.7449 9 21.7608 9C21.7766 9 21.7925 9 21.8084 9C21.8244 9 21.8403 9 21.8562 9C21.8721 9 21.8881 9 21.9041 9C21.92 9 21.936 9 21.952 9C21.968 9 21.984 9 22 9L22 7C21.984 7 21.968 7 21.952 7C21.936 7 21.92 7 21.9041 7C21.8881 7 21.8721 7 21.8562 7C21.8403 7 21.8244 7 21.8084 7C21.7925 7 21.7766 7 21.7608 7C21.7449 7 21.729 7 21.7132 7C21.6973 7 21.6815 7 21.6656 7C21.6498 7 21.634 7 21.6182 7C21.6024 7 21.5866 7 21.5708 7C21.5551 7 21.5393 7 21.5235 7C21.5078 7 21.4921 7 21.4763 7C21.4606 7 21.4449 7 21.4292 7C21.4135 7 21.3978 7 21.3822 7C21.3665 7 21.3508 7 21.3352 7C21.3196 7 21.3039 7 21.2883 7C21.2727 7 21.2571 7 21.2415 7C21.2259 7 21.2103 7 21.1948 7C21.1792 7 21.1636 7 21.1481 7C21.1326 7 21.117 7 21.1015 7C21.086 7 21.0705 7 21.055 7C21.0395 7 21.024 7 21.0086 7C20.9931 7 20.9777 7 20.9622 7C20.9468 7 20.9314 7 20.9159 7C20.9005 7 20.8851 7 20.8697 7C20.8544 7 20.839 7 20.8236 7C20.8082 7 20.7929 7 20.7776 7C20.7622 7 20.7469 7 20.7316 7C20.7163 7 20.701 7 20.6857 7C20.6704 7 20.6551 7 20.6398 7C20.6246 7 20.6093 7 20.5941 7C20.5788 7 20.5636 7 20.5484 7C20.5332 7 20.518 7 20.5028 7C20.4876 7 20.4724 7 20.4572 7C20.4421 7 20.4269 7 20.4118 7C20.3966 7 20.3815 7 20.3664 7C20.3512 7 20.3361 7 20.321 7C20.3059 7 20.2908 7 20.2758 7C20.2607 7 20.2456 7 20.2306 7C20.2155 7 20.2005 7 20.1855 7C20.1704 7 20.1554 7 20.1404 7C20.1254 7 20.1104 7 20.0954 7C20.0805 7 20.0655 7 20.0505 7C20.0356 7 20.0206 7 20.0057 7C19.9908 7 19.9758 7 19.9609 7C19.946 7 19.9311 7 19.9162 7C19.9013 7 19.8865 7 19.8716 7C19.8567 7 19.8419 7 19.827 7C19.8122 7 19.7974 7 19.7825 7C19.7677 7 19.7529 7 19.7381 7C19.7233 7 19.7085 7 19.6937 7C19.679 7 19.6642 7 19.6494 7C19.6347 7 19.6199 7 19.6052 7C19.5905 7 19.5757 7 19.561 7C19.5463 7 19.5316 7 19.5169 7C19.5022 7 19.4876 7 19.4729 7C19.4582 7 19.4436 7 19.4289 7C19.4143 7 19.3996 7 19.385 7C19.3704 7 19.3558 7 19.3412 7C19.3266 7 19.312 7 19.2974 7C19.2828 7 19.2682 7 19.2537 7C19.2391 7 19.2246 7 19.21 7C19.1955 7 19.181 7 19.1664 7C19.1519 7 19.1374 7 19.1229 7C19.1084 7 19.0939 7 19.0794 7C19.065 7 19.0505 7 19.036 7C19.0216 7 19.0071 7 18.9927 7C18.9783 7 18.9638 7 18.9494 7C18.935 7 18.9206 7 18.9062 7C18.8918 7 18.8774 7 18.863 7C18.8487 7 18.8343 7 18.8199 7C18.8056 7 18.7912 7 18.7769 7C18.7626 7 18.7482 7 18.7339 7C18.7196 7 18.7053 7 18.691 7C18.6767 7 18.6624 7 18.6481 7C18.6339 7 18.6196 7 18.6053 7C18.5911 7 18.5768 7 18.5626 7C18.5483 7 18.5341 7 18.5199 7C18.5057 7 18.4915 7 18.4773 7C18.4631 7 18.4489 7 18.4347 7C18.4205 7 18.4063 7 18.3922 7C18.378 7 18.3639 7 18.3497 7C18.3356 7 18.3214 7 18.3073 7C18.2932 7 18.2791 7 18.265 7C18.2509 7 18.2368 7 18.2227 7C18.2086 7 18.1945 7 18.1805 7C18.1664 7 18.1523 7 18.1383 7C18.1242 7 18.1102 7 18.0961 7C18.0821 7 18.0681 7 18.0541 7C18.0401 7 18.0261 7 18.0121 7C17.9981 7 17.9841 7 17.9701 7C17.9561 7 17.9422 7 17.9282 7C17.9142 7 17.9003 7 17.8863 7C17.8724 7 17.8585 7 17.8445 7C17.8306 7 17.8167 7 17.8028 7C17.7889 7 17.775 7 17.7611 7C17.7472 7 17.7333 7 17.7194 7C17.7056 7 17.6917 7 17.6778 7C17.664 7 17.6501 7 17.6363 7C17.6225 7 17.6086 7 17.5948 7C17.581 7 17.5672 7 17.5534 7C17.5396 7 17.5258 7 17.512 7C17.4982 7 17.4844 7 17.4706 7C17.4569 7 17.4431 7 17.4293 7C17.4156 7 17.4018 7 17.3881 7C17.3744 7 17.3606 7 17.3469 7C17.3332 7 17.3195 7 17.3058 7C17.2921 7 17.2784 7 17.2647 7C17.251 7 17.2373 7 17.2236 7C17.2099 7 17.1963 7 17.1826 7C17.169 7 17.1553 7 17.1417 7C17.128 7 17.1144 7 17.1008 7C17.0871 7 17.0735 7 17.0599 7C17.0463 7 17.0327 7 17.0191 7C17.0055 7 16.9919 7 16.9783 7C16.9647 7 16.9512 7 16.9376 7C16.924 7 16.9105 7 16.8969 7C16.8834 7 16.8698 7 16.8563 7C16.8427 7 16.8292 7 16.8157 7C16.8022 7 16.7887 7 16.7751 7C16.7616 7 16.7481 7 16.7347 7C16.7212 7 16.7077 7 16.6942 7C16.6807 7 16.6672 7 16.6538 7C16.6403 7 16.6269 7 16.6134 7C16.6 7 16.5865 7 16.5731 7C16.5597 7 16.5462 7 16.5328 7C16.5194 7 16.506 7 16.4926 7C16.4792 7 16.4658 7 16.4524 7C16.439 7 16.4256 7 16.4122 7C16.3988 7 16.3855 7 16.3721 7C16.3587 7 16.3454 7 16.332 7C16.3187 7 16.3053 7 16.292 7C16.2787 7 16.2653 7 16.252 7C16.2387 7 16.2254 7 16.212 7C16.1987 7 16.1854 7 16.1721 7C16.1588 7 16.1455 7 16.1323 7C16.119 7 16.1057 7 16.0924 7C16.0791 7 16.0659 7 16.0526 7C16.0394 7 16.0261 7 16.0129 7C15.9996 7 15.9864 7 15.9731 7C15.9599 7 15.9467 7 15.9335 7C15.9202 7 15.907 7 15.8938 7C15.8806 7 15.8674 7 15.8542 7C15.841 7 15.8278 7 15.8146 7C15.8014 7 15.7883 7 15.7751 7C15.7619 7 15.7488 7 15.7356 7C15.7224 7 15.7093 7 15.6961 7C15.683 7 15.6698 7 15.6567 7C15.6436 7 15.6304 7 15.6173 7C15.6042 7 15.5911 7 15.578 7C15.5648 7 15.5517 7 15.5386 7C15.5255 7 15.5124 7 15.4993 7C15.4863 7 15.4732 7 15.4601 7C15.447 7 15.4339 7 15.4209 7C15.4078 7 15.3947 7 15.3817 7C15.3686 7 15.3556 7 15.3425 7C15.3295 7 15.3164 7 15.3034 7C15.2904 7 15.2773 7 15.2643 7C15.2513 7 15.2383 7 15.2252 7C15.2122 7 15.1992 7 15.1862 7C15.1732 7 15.1602 7 15.1472 7C15.1342 7 15.1212 7 15.1083 7C15.0953 7 15.0823 7 15.0693 7C15.0563 7 15.0434 7 15.0304 7C15.0174 7 15.0045 7 14.9915 7C14.9786 7 14.9656 7 14.9527 7C14.9397 7 14.9268 7 14.9139 7C14.9009 7 14.888 7 14.8751 7C14.8622 7 14.8492 7 14.8363 7C14.8234 7 14.8105 7 14.7976 7C14.7847 7 14.7718 7 14.7589 7C14.746 7 14.7331 7 14.7202 7C14.7073 7 14.6945 7 14.6816 7C14.6687 7 14.6558 7 14.643 7C14.6301 7 14.6172 7 14.6044 7C14.5915 7 14.5786 7 14.5658 7C14.5529 7 14.5401 7 14.5273 7C14.5144 7 14.5016 7 14.4887 7C14.4759 7 14.4631 7 14.4502 7C14.4374 7 14.4246 7 14.4118 7C14.399 7 14.3862 7 14.3733 7C14.3605 7 14.3477 7 14.3349 7C14.3221 7 14.3093 7 14.2965 7C14.2837 7 14.271 7 14.2582 7C14.2454 7 14.2326 7 14.2198 7C14.207 7 14.1943 7 14.1815 7C14.1687 7 14.156 7 14.1432 7C14.1304 7 14.1177 7 14.1049 7C14.0922 7 14.0794 7 14.0667 7C14.0539 7 14.0412 7 14.0284 7C14.0157 7 14.003 7 13.9902 7C13.9775 7 13.9648 7 13.9521 7C13.9393 7 13.9266 7 13.9139 7C13.9012 7 13.8885 7 13.8757 7C13.863 7 13.8503 7 13.8376 7C13.8249 7 13.8122 7 13.7995 7C13.7868 7 13.7741 7 13.7614 7C13.7487 7 13.736 7 13.7234 7C13.7107 7 13.698 7 13.6853 7C13.6726 7 13.6599 7 13.6473 7C13.6346 7 13.6219 7 13.6093 7C13.5966 7 13.5839 7 13.5713 7C13.5586 7 13.546 7 13.5333 7C13.5206 7 13.508 7 13.4953 7C13.4827 7 13.47 7 13.4574 7C13.4448 7 13.4321 7 13.4195 7C13.4068 7 13.3942 7 13.3816 7C13.3689 7 13.3563 7 13.3437 7C13.331 7 13.3184 7 13.3058 7C13.2932 7 13.2806 7 13.2679 7C13.2553 7 13.2427 7 13.2301 7C13.2175 7 13.2049 7 13.1923 7C13.1797 7 13.167 7 13.1544 7C13.1418 7 13.1292 7 13.1166 7C13.104 7 13.0914 7 13.0789 7C13.0663 7 13.0537 7 13.0411 7C13.0285 7 13.0159 7 13.0033 7C12.9907 7 12.9782 7 12.9656 7C12.953 7 12.9404 7 12.9278 7C12.9153 7 12.9027 7 12.8901 7C12.8775 7 12.865 7 12.8524 7C12.8398 7 12.8273 7 12.8147 7C12.8021 7 12.7896 7 12.777 7C12.7644 7 12.7519 7 12.7393 7C12.7268 7 12.7142 7 12.7017 7C12.6891 7 12.6766 7 12.664 7C12.6515 7 12.6389 7 12.6264 7C12.6138 7 12.6013 7 12.5887 7C12.5762 7 12.5636 7 12.5511 7C12.5386 7 12.526 7 12.5135 7C12.5009 7 12.4884 7 12.4759 7C12.4633 7 12.4508 7 12.4383 7C12.4257 7 12.4132 7 12.4007 7C12.3881 7 12.3756 7 12.3631 7C12.3506 7 12.338 7 12.3255 7C12.313 7 12.3005 7 12.2879 7C12.2754 7 12.2629 7 12.2504 7C12.2379 7 12.2253 7 12.2128 7C12.2003 7 12.1878 7 12.1753 7C12.1627 7 12.1502 7 12.1377 7C12.1252 7 12.1127 7 12.1002 7C12.0877 7 12.0751 7 12.0626 7C12.0501 7 12.0376 7 12.0251 7C12.0126 7 12.0001 7 11.9876 7C11.9751 7 11.9626 7 11.9501 7C11.9376 7 11.925 7 11.9125 7C11.9 7 11.8875 7 11.875 7C11.8625 7 11.85 7 11.8375 7C11.825 7 11.8125 7 11.8 7C11.7875 7 11.775 7 11.7625 7C11.75 7 11.7375 7 11.725 7C11.7125 7 11.7 7 11.6875 7C11.675 7 11.6625 7 11.65 7C11.6375 7 11.625 7 11.6125 7C11.6 7 11.5875 7 11.575 7C11.5625 7 11.55 7 11.5375 7C11.525 7 11.5125 7 11.5 7C11.4875 7 11.475 7 11.4625 7C11.45 7 11.4375 7 11.425 7C11.4125 7 11.4 7 11.3875 7C11.375 7 11.3625 7 11.35 7C11.3375 7 11.325 7 11.3125 7C11.3 7 11.2875 7 11.275 7C11.2625 7 11.25 7 11.2375 7C11.225 7 11.2125 7 11.2 7C11.1875 7 11.175 7 11.1625 7C11.15 7 11.1375 7 11.125 7C11.1125 7 11.1 7 11.0875 7C11.075 7 11.0624 7 11.0499 7C11.0374 7 11.0249 7 11.0124 7C10.9999 7 10.9874 7 10.9749 7C10.9624 7 10.9499 7 10.9374 7C10.9249 7 10.9123 7 10.8998 7C10.8873 7 10.8748 7 10.8623 7C10.8498 7 10.8373 7 10.8247 7C10.8122 7 10.7997 7 10.7872 7C10.7747 7 10.7621 7 10.7496 7C10.7371 7 10.7246 7 10.7121 7C10.6995 7 10.687 7 10.6745 7C10.662 7 10.6494 7 10.6369 7C10.6244 7 10.6119 7 10.5993 7C10.5868 7 10.5743 7 10.5617 7C10.5492 7 10.5367 7 10.5241 7C10.5116 7 10.4991 7 10.4865 7C10.474 7 10.4614 7 10.4489 7C10.4364 7 10.4238 7 10.4113 7C10.3987 7 10.3862 7 10.3736 7C10.3611 7 10.3485 7 10.336 7C10.3234 7 10.3109 7 10.2983 7C10.2858 7 10.2732 7 10.2607 7C10.2481 7 10.2356 7 10.223 7C10.2104 7 10.1979 7 10.1853 7C10.1727 7 10.1602 7 10.1476 7C10.135 7 10.1225 7 10.1099 7C10.0973 7 10.0847 7 10.0722 7C10.0596 7 10.047 7 10.0344 7C10.0218 7 10.0093 7 9.99668 7C9.9841 7 9.97151 7 9.95892 7C9.94633 7 9.93374 7 9.92115 7C9.90855 7 9.89596 7 9.88336 7C9.87076 7 9.85816 7 9.84556 7C9.83295 7 9.82035 7 9.80774 7C9.79513 7 9.78252 7 9.76991 7C9.7573 7 9.74468 7 9.73207 7C9.71945 7 9.70683 7 9.6942 7C9.68158 7 9.66896 7 9.65633 7C9.6437 7 9.63107 7 9.61844 7C9.6058 7 9.59317 7 9.58053 7C9.56789 7 9.55525 7 9.5426 7C9.52996 7 9.51731 7 9.50466 7C9.49201 7 9.47936 7 9.46671 7C9.45405 7 9.44139 7 9.42873 7C9.41607 7 9.4034 7 9.39074 7C9.37807 7 9.3654 7 9.35273 7C9.34005 7 9.32738 7 9.3147 7C9.30202 7 9.28933 7 9.27665 7C9.26396 7 9.25127 7 9.23858 7C9.22589 7 9.21319 7 9.20049 7C9.1878 7 9.17509 7 9.16239 7C9.14968 7 9.13697 7 9.12426 7C9.11155 7 9.09883 7 9.08611 7C9.0734 7 9.06067 7 9.04795 7C9.03522 7 9.02249 7 9.00976 7C8.99703 7 8.98429 7 8.97155 7C8.95881 7 8.94607 7 8.93332 7C8.92057 7 8.90782 7 8.89507 7C8.88231 7 8.86955 7 8.85679 7C8.84403 7 8.83126 7 8.81849 7C8.80572 7 8.79295 7 8.78017 7C8.7674 7 8.75462 7 8.74183 7C8.72905 7 8.71626 7 8.70346 7C8.69067 7 8.67787 7 8.66507 7C8.65227 7 8.63947 7 8.62666 7C8.61385 7 8.60103 7 8.58822 7C8.5754 7 8.56258 7 8.54975 7C8.53693 7 8.5241 7 8.51126 7C8.49843 7 8.48559 7 8.47275 7C8.45991 7 8.44706 7 8.43421 7C8.42136 7 8.4085 7 8.39564 7C8.38278 7 8.36992 7 8.35705 7C8.34418 7 8.3313 7 8.31843 7C8.30555 7 8.29267 7 8.27978 7C8.26689 7 8.254 7 8.24111 7C8.22821 7 8.21531 7 8.2024 7C8.1895 7 8.17659 7 8.16367 7C8.15076 7 8.13784 7 8.12491 7C8.11199 7 8.09906 7 8.08613 7C8.07319 7 8.06025 7 8.04731 7C8.03437 7 8.02142 7 8.00847 7C7.99551 7 7.98255 7 7.96959 7C7.95663 7 7.94366 7 7.93069 7C7.91771 7 7.90473 7 7.89175 7C7.87877 7 7.86578 7 7.85278 7C7.83979 7 7.82679 7 7.81379 7C7.80078 7 7.78777 7 7.77476 7C7.76174 7 7.74872 7 7.7357 7C7.72267 7 7.70964 7 7.69661 7C7.68357 7 7.67053 7 7.65748 7C7.64444 7 7.63138 7 7.61833 7C7.60527 7 7.59221 7 7.57914 7C7.56607 7 7.55299 7 7.53991 7C7.52684 7 7.51375 7 7.50066 7C7.48757 7 7.47447 7 7.46137 7C7.44827 7 7.43516 7 7.42205 7C7.40893 7 7.39581 7 7.38269 7C7.36956 7 7.35643 7 7.34329 7C7.33016 7 7.31701 7 7.30387 7C7.29072 7 7.27756 7 7.2644 7C7.25124 7 7.23807 7 7.2249 7C7.21173 7 7.19855 7 7.18537 7C7.17218 7 7.15899 7 7.14579 7C7.1326 7 7.11939 7 7.10619 7C7.09298 7 7.07976 7 7.06654 7C7.05332 7 7.04009 7 7.02686 7C7.01362 7 7.00038 7 6.98714 7C6.97389 7 6.96064 7 6.94738 7C6.93412 7 6.92085 7 6.90758 7C6.89431 7 6.88103 7 6.86774 7C6.85446 7 6.84117 7 6.82787 7C6.81457 7 6.80127 7 6.78796 7C6.77464 7 6.76133 7 6.748 7C6.73468 7 6.72135 7 6.70801 7C6.69467 7 6.68133 7 6.66797 7C6.65462 7 6.64126 7 6.6279 7C6.61453 7 6.60116 7 6.58778 7C6.57441 7 6.56102 7 6.54763 7C6.53424 7 6.52084 7 6.50743 7C6.49402 7 6.48061 7 6.46719 7C6.45377 7 6.44034 7 6.42691 7C6.41347 7 6.40003 7 6.38658 7C6.37313 7 6.35968 7 6.34621 7C6.33275 7 6.31928 7 6.3058 7C6.29233 7 6.27884 7 6.26535 7C6.25186 7 6.23836 7 6.22485 7C6.21134 7 6.19783 7 6.18431 7C6.17079 7 6.15726 7 6.14372 7C6.13019 7 6.11664 7 6.10309 7C6.08954 7 6.07598 7 6.06241 7C6.04885 7 6.03527 7 6.02169 7C6.00811 7 5.99452 7 5.98092 7C5.96733 7 5.95372 7 5.94011 7C5.9265 7 5.91288 7 5.89925 7C5.88562 7 5.87199 7 5.85834 7C5.8447 7 5.83105 7 5.81739 7C5.80373 7 5.79006 7 5.77639 7C5.76271 7 5.74903 7 5.73534 7C5.72165 7 5.70795 7 5.69424 7C5.68054 7 5.66682 7 5.6531 7C5.63937 7 5.62564 7 5.6119 7C5.59816 7 5.58442 7 5.57066 7C5.5569 7 5.54314 7 5.52937 7C5.5156 7 5.50182 7 5.48803 7C5.47424 7 5.46044 7 5.44663 7C5.43283 7 5.41902 7 5.40519 7C5.39137 7 5.37754 7 5.3637 7C5.34986 7 5.33601 7 5.32216 7C5.3083 7 5.29444 7 5.28056 7C5.26669 7 5.25281 7 5.23892 7C5.22503 7 5.21113 7 5.19722 7C5.18331 7 5.16939 7 5.15547 7C5.14154 7 5.12761 7 5.11366 7C5.09972 7 5.08577 7 5.07181 7C5.05785 7 5.04388 7 5.0299 7C5.01592 7 5.00193 7 4.98794 7C4.97394 7 4.95994 7 4.94592 7C4.93191 7 4.91788 7 4.90385 7C4.88982 7 4.87578 7 4.86173 7C4.84768 7 4.83362 7 4.81955 7C4.80548 7 4.7914 7 4.77731 7C4.76323 7 4.74913 7 4.73502 7C4.72092 7 4.7068 7 4.69268 7C4.67855 7 4.66442 7 4.65028 7C4.63613 7 4.62198 7 4.60782 7C4.59366 7 4.57949 7 4.5653 7C4.55112 7 4.53693 7 4.52273 7C4.50853 7 4.49432 7 4.4801 7C4.46588 7 4.45166 7 4.43742 7C4.42318 7 4.40893 7 4.39467 7C4.38041 7 4.36615 7 4.35187 7C4.33759 7 4.3233 7 4.30901 7C4.29471 7 4.2804 7 4.26609 7C4.25177 7 4.23744 7 4.22311 7C4.20877 7 4.19442 7 4.18007 7C4.16571 7 4.15134 7 4.13697 7C4.12259 7 4.10821 7 4.09381 7C4.07941 7 4.06501 7 4.05059 7C4.03617 7 4.02174 7 4.00731 7C3.99287 7 3.97842 7 3.96397 7C3.94951 7 3.93504 7 3.92056 7C3.90608 7 3.89159 7 3.8771 7C3.8626 7 3.84809 7 3.83357 7C3.81905 7 3.80452 7 3.78998 7C3.77544 7 3.76089 7 3.74632 7C3.73176 7 3.71719 7 3.70261 7C3.68803 7 3.67343 7 3.65883 7C3.64422 7 3.62961 7 3.61499 7C3.60036 7 3.58572 7 3.57108 7C3.55643 7 3.54177 7 3.52711 7C3.51244 7 3.49776 7 3.48307 7C3.46838 7 3.45368 7 3.43897 7C3.42426 7 3.40953 7 3.3948 7C3.38007 7 3.36532 7 3.35057 7C3.33581 7 3.32105 7 3.30627 7C3.29149 7 3.2767 7 3.2619 7C3.2471 7 3.23229 7 3.21747 7C3.20265 7 3.18782 7 3.17297 7C3.15813 7 3.14327 7 3.1284 7C3.11354 7 3.09866 7 3.08377 7C3.06888 7 3.05398 7 3.03907 7C3.02416 7 3.00923 7 2.9943 7C2.97936 7 2.96442 7 2.94946 7C2.9345 7 2.91953 7 2.90455 7C2.88957 7 2.87458 7 2.85957 7C2.84457 7 2.82956 7 2.81453 7C2.7995 7 2.78446 7 2.76941 7C2.75436 7 2.7393 7 2.72422 7C2.70915 7 2.69406 7 2.67897 7C2.66387 7 2.64876 7 2.63364 7C2.61852 7 2.60338 7 2.58824 7C2.57309 7 2.55794 7 2.54277 7C2.5276 7 2.51242 7 2.49723 7C2.48203 7 2.46683 7 2.45161 7C2.43639 7 2.42116 7 2.40592 7C2.39068 7 2.37543 7 2.36016 7C2.3449 7 2.32962 7 2.31433 7C2.29904 7 2.28374 7 2.26842 7C2.25311 7 2.23778 7 2.22244 7C2.2071 7 2.19175 7 2.17639 7C2.16102 7 2.14565 7 2.13026 7C2.11487 7 2.09947 7 2.08406 7C2.06864 7 2.05322 7 2.03778 7C2.02234 7 2.00689 7 1.99142 7C1.97596 7 1.96048 7 1.94499 7C1.9295 7 1.914 7 1.89849 7C1.88297 7 1.86744 7 1.8519 7C1.83636 7 1.82081 7 1.80524 7C1.78968 7 1.7741 7 1.75851 7C1.74292 7 1.72731 7 1.7117 7C1.69608 7 1.68045 7 1.6648 7C1.64916 7 1.63351 7 1.61784 7C1.60217 7 1.58648 7 1.57079 7C1.55509 7 1.53938 7 1.52366 7C1.50794 7 1.49221 7 1.47646 7C1.46071 7 1.44495 7 1.42917 7C1.4134 7 1.39761 7 1.38181 7C1.36601 7 1.3502 7 1.33437 7C1.31854 7 1.3027 7 1.28684 7C1.27099 7 1.25512 7 1.23924 7C1.22336 7 1.20746 7 1.19155 7C1.17565 7 1.15972 7 1.14379 7C1.12785 7 1.1119 7 1.09594 7C1.07998 7 1.064 7 1.04801 7C1.03202 7 1.01602 7 1 7L1 9Z" fill="#C40201"/>
</svg>
